<svg width="60" height="44" viewBox="0 0 60 44" fill="none" xmlns="http://www.w3.org/2000/svg">
<path d="M49.9179 3.72818C56.4152 13.309 59.624 24.1159 58.4245 36.5571C58.4195 36.6097 58.3921 36.6581 58.349 36.6898C53.4287 40.3133 48.6616 42.5123 43.9613 43.9706C43.9247 43.9818 43.8856 43.9811 43.8493 43.9689C43.8131 43.9566 43.7816 43.9332 43.7593 43.9021C42.6734 42.3868 41.6867 40.7893 40.8223 39.1117C40.7727 39.0129 40.818 38.8939 40.9201 38.8549C42.4871 38.2628 43.9771 37.5531 45.4104 36.7129C45.5233 36.6465 45.5305 36.4843 45.4262 36.4064C45.122 36.1799 44.8207 35.9419 44.5323 35.7039C44.4784 35.6599 44.4058 35.6512 44.3446 35.6808C35.0398 39.9901 24.8468 39.9901 15.432 35.6808C15.3708 35.6534 15.2982 35.6628 15.2457 35.706C14.9581 35.944 14.656 36.1799 14.3547 36.4064C14.2504 36.4843 14.2591 36.6465 14.3727 36.7129C15.8059 37.5372 17.2959 38.2628 18.8608 38.8578C18.9622 38.8968 19.0104 39.0129 18.96 39.1117C18.1143 40.7914 17.1277 42.389 16.0216 43.9043C15.9735 43.9656 15.8944 43.9937 15.8196 43.9706C11.1416 42.5123 6.3745 40.3133 1.45421 36.6898C1.41322 36.6581 1.38374 36.6076 1.37942 36.5549C0.376952 25.7935 2.42 14.8971 9.87811 3.72602C9.89609 3.69645 9.92342 3.67337 9.95506 3.65966C13.6248 1.97054 17.5563 0.727867 21.6654 0.0181771C21.7402 0.00663741 21.815 0.0412564 21.8538 0.10761C22.3615 1.00915 22.9418 2.16528 23.3345 3.11009C27.6658 2.44656 32.0647 2.44656 36.4867 3.11009C36.8793 2.18547 37.4395 1.00915 37.9451 0.10761C37.9631 0.0746925 37.991 0.0483211 38.0248 0.0322603C38.0587 0.0161996 38.0967 0.0112706 38.1335 0.0181771C42.2448 0.73003 46.1763 1.97271 49.8431 3.65966C49.8755 3.67337 49.9021 3.69645 49.9179 3.72818ZM25.5365 24.1895C25.5818 21.0081 23.2691 18.3756 20.3659 18.3756C17.4865 18.3756 15.1961 20.985 15.1961 24.1895C15.1961 27.3932 17.5318 30.0026 20.3659 30.0026C23.246 30.0026 25.5365 27.3932 25.5365 24.1895ZM44.6524 24.1895C44.6977 21.0081 42.385 18.3756 39.4826 18.3756C36.6025 18.3756 34.312 20.985 34.312 24.1895C34.312 27.3932 36.6478 30.0026 39.4826 30.0026C42.385 30.0026 44.6524 27.3932 44.6524 24.1895Z" fill="#5865F2"/>
</svg>
