<svg width="60" height="60" viewBox="0 0 60 60" fill="none" xmlns="http://www.w3.org/2000/svg">
<path d="M4.09102 53.4028H13.6364V30.221L0 19.9937V49.312C0 51.5722 1.8307 53.403 4.09102 53.403V53.4028Z" fill="#4285F4"/>
<path d="M46.3633 53.4028H55.9088C58.169 53.4028 59.9997 51.5721 59.9997 49.3119V19.9937L46.3633 30.221V53.4028Z" fill="#34A853"/>
<path d="M46.3633 12.494V30.2213L59.9997 19.994V14.5395C59.9997 9.48379 54.2282 6.59629 50.1815 9.63039L46.3633 12.494Z" fill="#FBBC04"/>
<path fill-rule="evenodd" clip-rule="evenodd" d="M13.6367 30.2214V12.4941L30.0003 24.767L46.3639 12.4941V30.2214L30.0003 42.4941L13.6367 30.2214Z" fill="#EA4335"/>
<path d="M0 14.5395V19.994L13.6364 30.2213V12.494L9.8182 9.6304C5.77148 6.5963 0 9.4838 0 14.5393V14.5395Z" fill="#C5221F"/>
</svg>
