<svg width="60" height="60" viewBox="0 0 60 60" fill="none" xmlns="http://www.w3.org/2000/svg">
<g clip-path="url(#clip0_2478_740)">
<path fill-rule="evenodd" clip-rule="evenodd" d="M21.9987 0C18.682 0.00244648 15.9977 2.68868 16.0002 5.99878C15.9977 9.30887 18.6844 11.9951 22.0012 11.9976H28.0021V6.00122C28.0046 2.69113 25.3179 0.00489297 21.9987 0C22.0012 0 22.0012 0 21.9987 0ZM21.9987 16H6.00099C2.68427 16.0024 -0.00244468 18.6887 6.69932e-06 21.9988C-0.00489606 25.3089 2.68182 27.9951 5.99854 28H21.9987C25.3154 27.9976 28.0021 25.3113 27.9997 22.0012C28.0021 18.6887 25.3154 16.0024 21.9987 16Z" fill="#36C5F0"/>
<path fill-rule="evenodd" clip-rule="evenodd" d="M59.9997 21.9988C60.0021 18.6887 57.3154 16.0024 53.9987 16C50.682 16.0024 47.9953 18.6887 47.9977 21.9988V28H53.9987C57.3154 27.9976 60.0021 25.3113 59.9997 21.9988ZM43.9995 21.9988V5.99878C44.002 2.69113 41.3177 0.00489297 38.001 0C34.6843 0.00244648 31.9976 2.68868 32 5.99878V21.9988C31.9951 25.3089 34.6818 27.9951 37.9985 28C41.3153 27.9976 44.002 25.3113 43.9995 21.9988Z" fill="#2EB67D"/>
<path fill-rule="evenodd" clip-rule="evenodd" d="M37.999 60C41.3157 59.9976 44.0025 57.3113 44 54.0012C44.0025 50.6911 41.3157 48.0049 37.999 48.0024H31.998V54.0012C31.9956 57.3089 34.6823 59.9951 37.999 60ZM37.999 43.9976H53.9992C57.3159 43.9951 60.0026 41.3089 60.0002 37.9988C60.0051 34.6887 57.3184 32.0025 54.0016 31.9976H38.0015C34.6848 32 31.998 34.6862 32.0005 37.9963C31.998 41.3089 34.6823 43.9951 37.999 43.9976Z" fill="#ECB22E"/>
<path fill-rule="evenodd" clip-rule="evenodd" d="M1.67616e-06 37.9988C-0.0024497 41.3089 2.68426 43.9951 6.00098 43.9976C9.3177 43.9951 12.0044 41.3089 12.002 37.9988V32H6.00098C2.68426 32.0024 -0.0024497 34.6887 1.67616e-06 37.9988ZM16.0002 37.9988V53.9988C15.9953 57.3089 18.682 59.9951 21.9987 60C25.3154 59.9976 28.0021 57.3113 27.9997 54.0012V38.0037C28.0046 34.6936 25.3179 32.0073 22.0011 32.0024C18.682 32.0024 15.9977 34.6887 16.0002 37.9988Z" fill="#E01E5A"/>
</g>
<defs>
<clipPath id="clip0_2478_740">
<rect width="60" height="60" fill="white"/>
</clipPath>
</defs>
</svg>
