<svg width="533" height="80" viewBox="0 0 533 80" fill="none" xmlns="http://www.w3.org/2000/svg">
<mask id="mask0_979_449" style="mask-type:alpha" maskUnits="userSpaceOnUse" x="0" y="0" width="533" height="80">
<rect width="533" height="80" fill="#D9D9D9"/>
</mask>
<g mask="url(#mask0_979_449)">
<path d="M159.802 39.2533C159.802 47.3549 153.349 53.9226 145.39 53.9226C137.43 53.9226 130.978 47.3549 130.978 39.2533C130.978 31.1517 137.43 24.584 145.39 24.584C153.349 24.584 159.802 31.1517 159.802 39.2533Z" fill="#A1FF75"/>
<path d="M530.863 80H513.239V19.9443L467.1 80H444.221L507.273 0H530.863V80Z" fill="white"/>
<path d="M431.193 0H450.24L421.943 80H394.85L357.577 0H377.336L407.548 66.741L431.193 0Z" fill="white"/>
<path d="M305.251 0H305.415C312.238 0 318.642 0.612813 324.626 1.83844C330.647 3.02693 335.919 5.10678 340.444 8.07799C345.005 11.0492 348.581 15.1346 351.171 20.3343C353.762 25.4967 355.057 32.052 355.057 40C355.057 47.5023 353.853 53.8162 351.445 58.9415C349.037 64.0297 345.625 68.1337 341.21 71.2535C336.831 74.3361 331.595 76.5645 325.502 77.9387C319.445 79.3129 312.749 80 305.415 80H305.251C297.88 80 291.148 79.3129 285.054 77.9387C278.997 76.5645 273.761 74.3361 269.346 71.2535C264.967 68.1337 261.574 64.0297 259.166 58.9415C256.794 53.8162 255.608 47.5023 255.608 40C255.608 32.052 256.903 25.4967 259.494 20.3343C262.085 15.1346 265.642 11.0492 270.167 8.07799C274.728 5.10678 280.001 3.02693 285.985 1.83844C292.005 0.612813 298.427 0 305.251 0ZM305.415 15.5989H305.251C302.259 15.5989 299.157 15.7289 295.946 15.9889C292.735 16.2117 289.633 16.7502 286.641 17.6045C283.686 18.4587 281.004 19.7772 278.596 21.5599C276.224 23.3055 274.327 25.6825 272.903 28.6908C271.48 31.662 270.769 35.4318 270.769 40C270.769 44.3083 271.48 47.9294 272.903 50.8635C274.327 53.7604 276.242 56.1189 278.65 57.9387C281.059 59.7215 283.759 61.0956 286.751 62.0613C289.743 62.9898 292.826 63.6212 296.001 63.9554C299.212 64.2897 302.295 64.4568 305.251 64.4568C305.324 64.4568 305.378 64.4568 305.415 64.4568C308.334 64.4568 311.399 64.2897 314.61 63.9554C317.821 63.6212 320.922 62.9898 323.915 62.0613C326.907 61.0956 329.588 59.7215 331.96 57.9387C334.368 56.1189 336.284 53.7604 337.707 50.8635C339.13 47.9294 339.842 44.3083 339.842 40C339.842 35.4318 339.13 31.662 337.707 28.6908C336.321 25.6825 334.423 23.3055 332.015 21.5599C329.643 19.7772 326.961 18.4587 323.969 17.6045C320.977 16.7502 317.876 16.2117 314.665 15.9889C311.454 15.7289 308.37 15.5989 305.415 15.5989Z" fill="white"/>
<path d="M249.202 0V14.4847H225.119V80H209.247V14.4847H185.164V0H249.202Z" fill="white"/>
<path d="M176.897 0V13.9276H154.129C148.801 13.9276 143.857 14.2804 139.296 14.9861C134.735 15.6917 130.739 16.9916 127.309 18.8858C123.916 20.7428 121.252 23.3798 119.318 26.7967C117.421 30.1764 116.472 34.5775 116.472 40C116.472 44.1226 116.983 47.6695 118.005 50.6407C119.027 53.6119 120.541 56.1003 122.548 58.1059C124.555 60.1114 127.054 61.7085 130.046 62.8969C133.075 64.0483 136.596 64.8839 140.61 65.4039C144.623 65.8867 149.13 66.1281 154.129 66.1281H176.897V80H139.679C127.382 80 117.749 76.4717 110.78 69.415C103.847 62.3213 100.381 52.5163 100.381 40C100.381 32.6462 102.151 25.9424 105.69 19.8886C109.229 13.8347 113.973 9.0065 119.92 5.4039C125.868 1.8013 132.454 0 139.679 0H176.897Z" fill="#A1FF75"/>
<path d="M86.6406 80H69.0167V19.9443L22.8769 80H-0.00146484L63.0508 0H86.6406V80Z" fill="white"/>
</g>
</svg>
