<svg width="53" height="60" viewBox="0 0 53 60" fill="none" xmlns="http://www.w3.org/2000/svg">
<g clip-path="url(#clip0_2478_799)">
<path d="M50.8709 54.2699C50.6817 54.4594 50.4452 54.5541 50.1614 54.5541C49.8776 54.5541 49.6411 54.4594 49.4519 54.2699C49.2627 54.0805 49.1681 53.8437 49.1681 53.5596C49.1681 53.2755 49.2627 53.015 49.4756 52.8256C49.6648 52.6362 49.9013 52.5651 50.1614 52.5651C50.4452 52.5651 50.6817 52.6598 50.8709 52.8493C51.0601 53.0387 51.1547 53.2755 51.1547 53.5596C51.1783 53.8437 51.0837 54.0805 50.8709 54.2699ZM49.5938 52.9676C49.4283 53.1334 49.3573 53.3228 49.3573 53.5359C49.3573 53.7727 49.4283 53.9621 49.5938 54.1279C49.7594 54.2936 49.9486 54.3647 50.1851 54.3647C50.4216 54.3647 50.6108 54.2936 50.7763 54.1279C50.9418 53.9621 51.0128 53.7727 51.0128 53.5359C51.0128 53.3228 50.9418 53.1097 50.7763 52.9676C50.6108 52.8019 50.4216 52.7072 50.1851 52.7072C49.9486 52.7309 49.7594 52.8019 49.5938 52.9676ZM50.4925 54.0568C50.3979 54.1279 50.3033 54.1515 50.2087 54.1515C50.0668 54.1515 49.9249 54.1042 49.8067 53.9858C49.6884 53.8674 49.6411 53.7253 49.6411 53.5596C49.6411 53.3938 49.6884 53.2518 49.783 53.1334C49.8776 53.015 50.0195 52.9676 50.1851 52.9676C50.2797 52.9676 50.3743 52.9913 50.4689 53.0387C50.5871 53.1097 50.6817 53.2281 50.7053 53.4175H50.4452C50.4216 53.3465 50.3979 53.2755 50.3506 53.2518C50.3033 53.2281 50.256 53.2044 50.2087 53.2044C50.1378 53.2044 50.0668 53.2281 50.0195 53.2991C49.9722 53.3702 49.9486 53.4649 49.9486 53.5833C49.9486 53.7017 49.9722 53.7964 50.0195 53.8437C50.0668 53.8911 50.1378 53.9384 50.2087 53.9384C50.2797 53.9384 50.327 53.9148 50.3743 53.8911L50.4452 53.749H50.6817C50.6581 53.8911 50.5871 53.9858 50.4925 54.0568ZM52.9993 43.5438C52.9993 43.4491 52.9757 43.3544 52.9757 43.2597C52.9757 43.1886 52.952 43.1413 52.952 43.0939C52.9284 42.9519 52.9047 42.8335 52.8574 42.6914C52.7629 42.4309 52.621 42.1705 52.4318 41.9574C52.2426 41.7443 52.0297 41.5785 51.8169 41.4602C51.5804 41.3418 51.3439 41.2707 51.1547 41.2234C51.0837 41.2234 51.0364 41.1997 50.9891 41.1997C51.2493 40.0631 50.9182 39.1871 50.7053 38.7845L50.7527 38.7372C51.0364 38.453 51.2729 38.1926 51.4858 37.9321L51.5331 37.8848C51.6986 37.648 51.7932 37.4112 51.8642 37.1981C51.9115 37.0087 51.9588 36.8429 51.9588 36.6772V36.5351V36.4404V36.2273C51.9351 35.8721 51.8878 35.4223 51.6513 34.925C51.5331 34.6882 51.3675 34.4278 51.1547 34.191C50.9418 33.9542 50.6817 33.7411 50.3743 33.5754C50.3506 33.5517 50.327 33.5517 50.3033 33.528C49.6648 32.6046 48.9553 31.8706 48.3168 31.326C47.9857 31.0418 47.6782 30.8051 47.4181 30.6156C47.1579 30.4262 46.9451 30.2841 46.8268 30.1894C46.5431 29.9763 46.3302 29.8579 46.2356 29.8106C45.9991 29.6685 45.8336 29.5501 45.739 29.4791C45.668 29.4081 45.6207 29.3844 45.5971 29.3607C45.5971 29.3607 45.5971 29.337 45.5734 29.2897C45.5498 29.2186 45.5498 29.1239 45.5498 28.9582C45.5498 28.7214 45.5498 28.3662 45.5734 27.8927C45.6207 27.135 45.6917 26.1168 45.7863 24.7198C45.8099 24.2699 45.8099 23.8437 45.8099 23.4649C45.7863 22.8256 45.6917 22.2573 45.5734 21.7364C45.5498 21.618 45.5025 21.4996 45.4788 21.3812C45.4552 21.2865 45.4315 21.2392 45.4079 21.1918C45.3842 21.1208 45.3606 21.0497 45.3133 20.955C45.2896 20.9077 45.2896 20.8603 45.2423 20.813C45.195 20.6946 45.1477 20.5762 45.0768 20.4578L45.0531 20.4341L45.0295 20.3631L45.0058 20.3157C44.8876 20.1026 44.7457 19.9132 44.6038 19.7474C44.5329 19.416 44.4146 18.9424 44.2018 18.3978C44.0126 17.9242 43.7761 17.4033 43.4213 16.8824C43.3031 16.693 43.1612 16.5272 43.0193 16.3615L43.0666 16.3141C43.1375 16.2431 44.793 14.4909 46.1174 12.2178C48.5533 7.97949 47.7492 5.39859 46.6376 3.97791L46.614 3.93055L46.5904 3.8832C45.5261 2.6993 44.0599 1.98896 42.2862 1.75218C38.5732 1.27862 34.3636 3.1255 33.2521 3.64642L31.2182 1.42069C31.029 1.23126 30.8398 1.04184 30.627 0.899772C30.4141 0.757704 30.1777 0.615636 29.9412 0.497246C29.4682 0.284144 28.9479 0.142076 28.3803 0.0710425C27.2688 -0.0710254 25.9917 0.0710425 24.62 0.426212C22.5625 0.947128 20.2685 1.98896 17.8563 3.43332C15.4441 4.87767 12.9372 6.74823 10.5013 8.97396C7.52151 11.6733 5.06197 14.5383 3.26461 17.2849C2.36594 18.6346 1.6328 19.9605 1.08887 21.2392C0.54493 22.4941 0.190188 23.7017 0.0482919 24.7909C-0.0463058 25.5959 -0.0463058 26.3536 0.11924 27.0403C0.190188 27.3481 0.284786 27.6322 0.426683 27.9163C0.592229 28.2715 0.805073 28.603 1.06522 28.8871L3.17002 31.0892L3.40651 31.326L3.38286 31.3497L3.31191 31.4917C3.26461 31.5628 3.24096 31.6338 3.19367 31.6811L3.12272 31.8232C3.09907 31.8942 3.05177 31.9653 3.02812 32.0363L2.95717 32.1784C2.93352 32.2494 2.88622 32.3204 2.86257 32.3915C2.83892 32.4388 2.81527 32.4862 2.81527 32.5336L2.74433 32.7467C2.72068 32.794 2.72068 32.8414 2.69703 32.8887C2.67338 32.9598 2.64973 33.0308 2.62608 33.1255C2.62608 33.1492 2.60243 33.1729 2.60243 33.1965C2.60243 33.2202 2.57878 33.2439 2.57878 33.2676C2.55513 33.3386 2.53148 33.4333 2.50783 33.5043C2.50783 33.5517 2.48418 33.5991 2.48418 33.6464C2.48418 33.6701 2.46053 33.7174 2.46053 33.7411C2.46053 33.7885 2.43688 33.8358 2.43688 33.8832C2.43688 33.9306 2.41323 33.9779 2.41323 34.0253C2.38958 34.12 2.38958 34.2147 2.36594 34.3331C2.36594 34.3568 2.36594 34.3804 2.34229 34.4278V34.4515C2.34229 34.5225 2.31864 34.5935 2.31864 34.6409C2.31864 34.7356 2.29499 34.854 2.29499 34.9487V36.1326C2.29499 36.18 2.29499 36.2273 2.31864 36.2747C2.31864 36.322 2.31864 36.3931 2.34229 36.4641V36.5351C2.34229 36.5825 2.36594 36.6535 2.36594 36.7009C2.36594 36.7482 2.38958 36.7956 2.38958 36.8666C2.38958 36.8903 2.38958 36.914 2.41323 36.9377C2.41323 36.9613 2.43688 37.0087 2.43688 37.0324V37.0797C2.43688 37.1271 2.46053 37.1744 2.48418 37.2691C2.48418 37.2928 2.48418 37.2928 2.50783 37.3165C2.53148 37.3639 2.53148 37.4112 2.53148 37.4349L2.55513 37.4823C2.55513 37.5059 2.55513 37.5059 2.57878 37.5296L2.60243 37.577V37.648C2.60243 37.6717 2.60243 37.6717 2.62608 37.6954L2.64973 37.7427C2.64973 37.7901 2.67338 37.8137 2.67338 37.8611C2.69703 37.9085 2.69703 37.9558 2.72068 38.0505C2.72068 38.0742 2.72068 38.0742 2.74433 38.0979C2.76798 38.1689 2.79162 38.2163 2.79162 38.2399C2.81527 38.2873 2.83892 38.3347 2.86257 38.4294L2.88622 38.453C2.90987 38.5004 2.90987 38.5478 2.93352 38.5714L2.95717 38.6188C2.95717 38.6425 2.98082 38.6661 2.98082 38.6898C2.98082 38.7135 3.00447 38.7609 3.02812 38.7845L3.05177 38.8319C3.07542 38.8556 3.07542 38.9029 3.09907 38.9266C3.12272 38.9503 3.12272 38.974 3.12272 38.9976C3.14637 39.045 3.17002 39.0924 3.19367 39.1634L3.21731 39.1871C3.24096 39.2107 3.24096 39.2344 3.26461 39.2581C3.28826 39.2818 3.28826 39.3291 3.31191 39.3528C3.33556 39.3765 3.35921 39.4238 3.38286 39.4949L3.40651 39.5186C3.43016 39.5422 3.43016 39.5659 3.45381 39.5896C3.47746 39.6369 3.50111 39.6606 3.50111 39.6843C3.52476 39.708 3.54841 39.7553 3.57206 39.8027V39.8264C3.59571 39.85 3.59571 39.8737 3.61935 39.8974C3.643 39.9448 3.66665 39.9684 3.6903 39.9921C3.71395 40.0158 3.7376 40.0631 3.7849 40.1342C3.80855 40.1579 3.8322 40.1815 3.8322 40.2052C3.85585 40.2526 3.8795 40.2762 3.90315 40.2999C3.9268 40.3236 3.95045 40.371 3.9741 40.4183C3.99775 40.442 4.02139 40.4894 4.04504 40.513C4.06869 40.5604 4.09234 40.5841 4.13964 40.6077L4.21059 40.6788L4.23424 40.7025C4.28154 40.7498 4.30519 40.7972 4.35249 40.8445L4.39979 40.8919L4.47073 40.9629L4.61263 41.105L4.65993 41.1523L4.73088 41.2234L4.75453 41.247C4.80183 41.2944 4.87277 41.3418 4.92007 41.4128L4.94372 41.4365C4.96737 41.4601 4.99102 41.4602 5.01467 41.5075C5.08562 41.5785 5.15657 41.6259 5.22752 41.6969L5.27481 41.7206L5.29846 41.7443L5.34576 41.768C5.41671 41.8153 5.46401 41.8627 5.53496 41.91L5.55861 41.9337C5.58226 41.9574 5.60591 41.9574 5.60591 41.9574L5.6532 42.0047C5.7005 42.0521 5.7478 42.0758 5.7951 42.1231L5.8424 42.1468L5.8897 42.1942L5.91335 42.2178C5.96065 42.2415 6.0316 42.2889 6.07889 42.3126C6.10254 42.3362 6.12619 42.3599 6.17349 42.3599L6.22079 42.3836L6.24444 42.4073H6.26809C6.36269 42.4546 6.43364 42.502 6.50458 42.5493L6.55188 42.573L6.83568 42.7151H6.85933L6.90662 42.7388L7.04852 42.8098C7.07217 42.8098 7.09582 42.8335 7.11947 42.8335C7.14312 42.8571 7.16677 42.8572 7.21407 42.8808H7.23772C7.28502 42.9045 7.33231 42.9282 7.37961 42.9282H7.40326C7.45056 42.9519 7.49786 42.9755 7.56881 42.9992H7.59246L7.63976 43.0229C7.6634 43.0229 7.68705 43.0466 7.7107 43.0466H7.73435C7.8053 43.0703 7.87625 43.0939 7.97085 43.1176H7.9945C8.11274 43.165 8.23099 43.1886 8.34924 43.2123H8.37289C8.46749 43.236 8.58573 43.2597 8.68033 43.2834H8.77493C8.86952 43.307 8.96412 43.3307 9.05872 43.3307H9.15332C9.22427 43.3307 9.27157 43.3544 9.34251 43.3544C9.34251 43.3781 9.36616 43.4017 9.36616 43.4254C9.53171 43.8753 9.69726 44.3252 9.88645 44.7514C12.6771 52.4941 20.4104 58.5083 29.2317 59.6212C38.0529 60.7103 47.489 54.8382 51.3202 46.9061C51.4858 46.5983 51.6277 46.3141 51.7696 46.0063C52.148 45.6038 52.4554 45.2013 52.6446 44.7751C52.952 44.5146 53.023 43.9937 52.9993 43.5438Z" fill="#664F44"/>
<path d="M45.4546 4.80663C45.0289 4.33307 44.5323 3.9779 43.9884 3.71745C43.8938 3.67009 43.7992 3.64641 43.6809 3.62274C43.6336 3.59906 43.5863 3.5517 43.539 3.52802C43.066 3.3386 42.5694 3.22021 42.0491 3.14918C39.495 2.81768 36.5624 3.7648 34.907 4.42779C34.8124 4.47514 34.7178 4.49882 34.6232 4.54618C34.4813 4.61721 34.3394 4.66457 34.1975 4.7356C33.961 4.83031 33.7245 4.9487 33.4644 5.06709C33.4171 5.09077 33.3934 5.09077 33.3461 5.11445L32.8968 4.59353L32.6839 4.35675L32.4947 4.14365L32.4238 4.04894L30.6974 2.05999L30.5555 1.89424L30.3663 1.68114H30.3426L29.846 1.79953L29.2784 1.91792C28.971 1.77585 28.5926 1.68114 28.1669 1.61011C27.3155 1.49172 26.2276 1.61011 24.9979 1.91792C23.7681 2.22573 22.3728 2.77033 20.9065 3.50435C17.9504 4.97238 14.6867 7.22179 11.5177 10.1105C10.4062 11.105 9.38926 12.1468 8.44328 13.165C7.52096 14.1594 6.69323 15.1776 5.93644 16.1484C4.39923 18.161 3.24041 20.1026 2.48363 21.8548C1.98699 23.015 1.67955 24.0805 1.5613 25.004C1.4667 25.6669 1.49035 26.2589 1.6086 26.7324C1.6559 26.8982 1.7032 27.0166 1.7505 27.1586C1.86874 27.4428 2.01064 27.6796 2.19984 27.8927L4.11544 29.9053L4.32828 30.1184L4.35193 30.0947C4.39923 30.0237 4.47018 29.9527 4.54113 29.9053L4.56478 29.8816L4.63573 29.8106C4.68302 29.7395 4.75397 29.6922 4.80127 29.6212C4.84857 29.5738 4.87222 29.5501 4.91952 29.5264C4.96682 29.5028 4.99047 29.4554 5.03777 29.4317L5.08506 29.3844C5.13236 29.3607 5.15601 29.3133 5.20331 29.2897C5.25061 29.2423 5.32156 29.195 5.36886 29.1476C5.39251 29.1239 5.43981 29.1002 5.46346 29.0766H5.48711C5.55805 29.0292 5.60535 28.9819 5.6763 28.9345C5.7236 28.9108 5.74725 28.8871 5.79455 28.8398C5.8655 28.7924 5.91279 28.7451 5.98374 28.6977C6.03104 28.674 6.05469 28.6504 6.10199 28.6267C6.17294 28.5793 6.24389 28.532 6.31484 28.5083C6.36213 28.4846 6.38578 28.4609 6.43308 28.4373C6.50403 28.3899 6.57498 28.3662 6.64593 28.3189C6.69323 28.2952 6.71688 28.2715 6.76417 28.2478L6.81147 28.2242C6.88242 28.2005 6.92972 28.1531 7.00067 28.1294C7.02432 28.1058 7.07162 28.1058 7.09527 28.0821C7.14256 28.0584 7.18986 28.0347 7.26081 28.0111L7.40271 27.94L7.45001 27.9163L7.80475 27.7743C7.85205 27.7506 7.8757 27.7506 7.923 27.7269C7.97029 27.7032 7.99394 27.7032 8.04124 27.6796L8.08854 27.6559C8.11219 27.6559 8.13584 27.6322 8.15949 27.6322C8.20679 27.6085 8.25409 27.6085 8.32504 27.5849H8.37233C8.44328 27.5612 8.49058 27.5612 8.56153 27.5375C8.60883 27.5138 8.67978 27.5138 8.72708 27.4901C8.79802 27.4665 8.86897 27.4665 8.93992 27.4428C8.96357 27.4428 8.98722 27.4191 9.03452 27.4191C9.05817 27.4191 9.10547 27.4191 9.12912 27.3954C9.20006 27.3717 9.27101 27.3717 9.34196 27.3717C9.41291 27.3717 9.46021 27.3481 9.53116 27.3481C9.57845 27.3481 9.62575 27.3244 9.67305 27.3244H9.86225C10.0987 27.3244 10.3825 27.3244 10.6663 27.3481H10.7136C10.9974 27.3717 11.3285 27.4191 11.6596 27.4901C11.7306 27.5138 11.8251 27.5138 11.8961 27.5375C11.9197 27.5138 11.9197 27.4665 11.9434 27.4428C12.1326 27.135 12.2981 26.8035 12.4873 26.4957C13.5516 24.7198 14.6867 23.1571 15.8456 21.7837C16.2476 21.3102 16.6496 20.884 17.0517 20.4578C18.7308 18.7056 20.4099 17.356 21.9235 16.3141C22.2545 16.0774 22.6093 15.8643 22.9167 15.6511C23.3661 15.367 23.7918 15.1302 24.1938 14.8935C24.5249 14.704 24.8323 14.5383 25.1398 14.3962C25.6364 14.1358 26.0858 13.9227 26.4878 13.7569L26.8425 13.6148C27.0081 13.5438 27.1736 13.4728 27.3155 13.4254C27.1973 13.4017 27.0554 13.4017 26.9371 13.4017H26.4641C26.3459 13.4017 26.204 13.4017 26.0858 13.4254C25.8493 13.4491 25.5891 13.4728 25.329 13.4965C25.2344 13.5201 25.1634 13.5201 25.0688 13.5438C25.7074 13.2123 26.3459 12.9755 26.9371 12.7861C27.3392 12.6677 27.7412 12.573 28.1196 12.502C28.6399 12.4073 29.1365 12.3362 29.5859 12.3126C29.8933 12.2889 30.1771 12.2889 30.4372 12.2889C30.6974 12.2889 30.9575 12.3126 31.1704 12.3126C31.9508 12.3599 32.4238 12.4783 32.4238 12.4783C32.3056 12.3126 32.1637 12.1942 32.0218 12.0758C31.738 11.8627 31.4305 11.7206 31.1467 11.6022C31.0285 11.5549 30.9339 11.5312 30.8393 11.4838C30.7683 11.4601 30.6974 11.4365 30.6501 11.4365C30.792 11.4128 30.9102 11.3891 31.0285 11.3891C31.1704 11.3654 31.2886 11.3654 31.4305 11.3418C32.542 11.247 33.5353 11.3418 34.2685 11.4601C35.1435 11.6259 35.6874 11.839 35.6874 11.839C35.5692 11.6022 35.38 11.3891 35.1671 11.1997C35.0252 11.0813 34.8597 10.9629 34.7178 10.8682C35.0252 10.9392 35.2854 11.0103 35.5692 11.105C36.2787 11.3181 36.8699 11.5785 37.3429 11.7916L37.7686 12.0047C37.8159 12.0284 37.8395 12.0521 37.8632 12.0521C38.2889 12.2889 38.5253 12.4546 38.5253 12.4546C38.4544 12.1942 38.3125 11.9574 38.1233 11.7443C38.076 11.6969 38.0287 11.6259 37.9814 11.5785H38.0051C38.0287 11.5785 38.0524 11.6022 38.0997 11.6022C38.1233 11.6022 38.1706 11.6259 38.2179 11.6496C38.4071 11.7206 38.6909 11.839 39.022 12.0047C39.0456 12.0047 39.0456 12.0284 39.0693 12.0284L39.2112 12.0995C39.3294 12.1705 39.4477 12.2178 39.5659 12.3126L39.9207 12.5257C39.9916 12.573 40.0389 12.5967 40.1099 12.644C40.2281 12.7388 40.37 12.8335 40.4883 12.9519C40.6301 13.0702 40.7484 13.1886 40.8666 13.307L40.9376 13.3781C41.0322 13.4728 41.1268 13.5675 41.1977 13.6622C41.3633 13.8516 41.5052 14.0647 41.6471 14.2778C41.8126 14.5383 41.9309 14.8461 42.0491 15.1539C42.0491 15.1776 42.0491 15.2013 42.0728 15.2013C42.1437 15.1302 42.2856 14.9882 42.4512 14.7987C43.8228 13.1886 47.9378 7.97948 45.4546 4.80663Z" fill="#132134"/>
<path d="M51.5805 43.7097C51.5805 43.7097 51.6278 43.3545 51.4386 43.023C51.4386 42.9993 51.415 42.9757 51.415 42.9757L51.3913 42.952L51.3204 42.8809C51.2731 42.8336 51.2258 42.7862 51.1548 42.7389C51.1312 42.7152 51.0839 42.6915 51.0366 42.6678C50.9183 42.6205 50.8001 42.5731 50.6345 42.5494C50.5163 42.5258 50.398 42.5258 50.2561 42.5258H50.0669V42.5731C50.0669 42.5968 50.0906 42.6205 50.0906 42.6678C50.0906 42.6915 50.0906 42.7152 50.1142 42.7152C50.1379 42.7862 50.1615 42.9046 50.1852 42.9993C50.1852 42.9993 50.1852 43.023 50.1615 43.0704V43.094C50.0906 43.2598 49.9014 43.6386 49.4757 44.1122C49.4048 44.2069 49.3338 44.2779 49.2392 44.3727C48.0567 45.6039 45.5026 47.3324 40.1105 48.3032C38.2895 48.5637 36.5868 48.5873 35.1678 48.3979C33.0394 48.1375 31.4549 47.4508 30.6981 46.5274C30.6271 46.4563 30.5798 46.3616 30.5089 46.2906C30.4616 46.2195 30.4379 46.1722 30.3906 46.1011C30.367 46.0775 30.367 46.0538 30.3433 46.0301C30.0359 45.4618 29.894 44.8462 29.894 44.2543C29.894 43.5202 30.1305 42.8336 30.5089 42.3127C30.8163 41.8865 31.2184 41.555 31.715 41.4129C31.9515 41.3419 32.2116 41.2945 32.4718 41.3182C32.5191 41.3182 32.59 41.3182 32.6846 41.3419C32.8502 41.3656 33.1103 41.3892 33.4178 41.4366C33.4414 41.4366 33.4887 41.4366 33.5124 41.4603C34.5293 41.5787 36.1374 41.7444 38.0767 41.626C41.6241 41.4129 46.283 40.3 50.5163 36.4642V36.4405C50.5399 36.109 50.4926 35.5408 50.0906 35.0909C50.0196 35.0199 49.9487 34.9488 49.8541 34.8778C49.8068 34.8304 49.7359 34.8068 49.6886 34.7594C49.6176 34.7357 49.5703 34.6884 49.523 34.6647L49.3102 34.5226V34.4989C49.2865 34.4516 49.2629 34.4042 49.2156 34.3569C48.1277 32.6994 46.6141 31.7286 45.9992 31.2787C45.7155 31.0656 45.5263 30.9709 45.5263 30.9709C44.2255 30.1659 44.0363 29.9054 44.1546 27.7507C44.2019 26.9693 44.2728 25.9512 44.3674 24.5542C44.3674 24.3648 44.3911 24.199 44.3911 24.0333V23.9149V23.3466C44.3911 23.2282 44.3674 23.1098 44.3674 23.0151C44.3674 22.9678 44.3674 22.9204 44.3438 22.873C44.3201 22.7547 44.3201 22.6363 44.2965 22.5179C44.2965 22.4705 44.2728 22.3995 44.2728 22.3521C44.2728 22.2811 44.2492 22.2337 44.2255 22.1627C44.2019 22.1154 44.2019 22.0443 44.1782 21.997C44.1546 21.9259 44.1309 21.8549 44.1309 21.7839C44.1309 21.7602 44.1073 21.7365 44.1073 21.7128C44.1073 21.6891 44.0836 21.6655 44.0836 21.6418V21.6181L44.06 21.5471C44.0363 21.4997 44.0127 21.4524 44.0127 21.405V21.3813L43.989 21.334L43.9654 21.2866C43.9181 21.1919 43.8944 21.0972 43.8471 21.0262L43.8235 20.9551C43.7762 20.8841 43.7289 20.7894 43.6816 20.7184L43.658 20.6947L43.6343 20.671C43.587 20.6236 43.5634 20.5763 43.5161 20.5289L43.4688 20.4579C43.4215 20.3869 43.3742 20.3395 43.3269 20.2921V20.1027C43.3032 20.008 43.2796 19.8896 43.2559 19.7712C43.2559 19.7476 43.2323 19.7002 43.2323 19.6765V19.6528C43.2323 19.6055 43.2086 19.5818 43.2086 19.5345C43.185 19.4397 43.1613 19.345 43.114 19.2503C43.114 19.2266 43.0904 19.1793 43.0904 19.1556L43.0194 18.9425C42.9958 18.8951 42.9958 18.8478 42.9721 18.8241C42.9485 18.7531 42.9248 18.682 42.8775 18.611L42.8066 18.4689C42.7829 18.3979 42.7356 18.3269 42.712 18.2558L42.641 18.1138C42.5937 18.0427 42.5701 17.9717 42.5228 17.9007L42.4518 17.7586C42.4045 17.6876 42.3572 17.6165 42.3099 17.5218C42.2863 17.4745 42.2626 17.4508 42.239 17.4034C42.2153 17.3798 42.1917 17.3324 42.168 17.3087C42.0971 17.2377 42.0498 17.1667 41.9788 17.0956L41.9315 17.0719C41.8369 16.9772 41.766 16.8825 41.6714 16.8115L41.6478 16.7878C41.6005 16.7641 41.5532 16.7168 41.5295 16.6931H41.5059C41.4586 16.6694 41.4349 16.6457 41.3876 16.6221L41.364 16.5984C41.3167 16.5747 41.2457 16.5273 41.1511 16.48C41.1275 16.4563 41.0802 16.4563 41.0329 16.4326C40.82 16.3616 40.5599 16.2669 40.2288 16.1722C40.2051 16.1722 40.1815 16.1722 40.1578 16.1485C39.8977 16.0775 39.5902 16.0064 39.2592 15.9591C39.1409 15.9354 39.0463 15.9354 38.9281 15.9117C38.8808 15.9117 38.8335 15.9117 38.7625 15.888H38.6916C38.4314 15.8644 38.1949 15.8407 37.9348 15.8407H37.9111C37.5801 15.8407 37.249 15.8644 36.9415 15.9354C37.0125 15.817 37.2253 15.6749 37.4145 15.5566C37.6746 15.4145 37.9111 15.3198 37.9111 15.3198C37.7692 15.3198 37.6273 15.3435 37.4855 15.3671C37.4382 15.3671 37.3909 15.3908 37.3436 15.3908C37.3199 15.3908 37.2726 15.3908 37.249 15.4145H37.2253C37.2017 15.4145 37.178 15.4145 37.1544 15.4382C36.4212 15.6039 35.7117 15.8644 35.3097 16.0301L35.1678 16.1011H35.1442C35.0969 16.1011 35.0732 16.1011 35.0259 16.1248C35.3097 15.5802 35.7354 15.2961 36.0665 15.154C36.1138 15.1303 36.1847 15.1067 36.232 15.083C36.2557 15.083 36.2557 15.083 36.2793 15.0593C36.3266 15.0356 36.3739 15.0356 36.3976 15.012C36.4685 14.9883 36.5158 14.9883 36.5158 14.9883H36.1374C35.3334 15.083 34.6002 15.3435 33.9853 15.6986C33.5596 15.9354 33.1813 16.1959 32.8502 16.4563C32.7556 16.48 32.6846 16.5037 32.59 16.5037C31.6913 16.6931 30.6744 16.9299 29.6102 17.2614C29.2082 17.3798 28.8061 17.5218 28.4041 17.6639C28.0966 17.7823 27.7655 17.9007 27.4581 18.0191C27.2216 18.1138 27.0088 18.2085 26.7723 18.3032C25.1405 19.0372 23.5086 20.008 22.1606 21.3103L22.0187 21.4524L21.664 21.8075L21.5221 21.9496C21.4748 22.0206 21.4038 22.0917 21.3565 22.139C21.0964 22.4232 20.8599 22.731 20.6234 23.0625C20.4579 23.2993 20.2923 23.5597 20.1504 23.8202L20.1268 23.8438C19.8193 24.3884 19.5355 24.9567 19.3227 25.596C19.2044 25.9038 19.1099 26.2353 19.0153 26.5668C18.9916 26.6615 18.968 26.7326 18.9443 26.8273L18.9207 26.8746C18.8261 27.2298 18.7551 27.6086 18.7078 27.9875C18.7078 28.0585 18.6842 28.1296 18.6842 28.2243C18.6605 28.4137 18.6369 28.6031 18.6369 28.8162C18.6132 29.0056 18.6132 29.1714 18.6132 29.3608V30.0948C18.6132 30.3079 18.6132 30.521 18.6369 30.7341V30.7578C18.6369 30.9709 18.6605 31.184 18.6842 31.4208C18.6842 31.5155 18.7078 31.6102 18.7078 31.7049V31.776C18.7078 31.8233 18.7078 31.8707 18.7315 31.9417C18.7551 32.1785 18.8024 32.439 18.8261 32.6994C18.8261 32.7704 18.8497 32.8415 18.8497 32.9125C18.897 33.1256 18.9207 33.3624 18.968 33.5755C18.968 33.5755 18.9207 33.2914 18.9443 32.8652C18.9443 32.7704 18.968 32.6521 18.968 32.5573C18.9916 32.3206 19.0389 32.0364 19.1335 31.776L19.2044 31.5629C19.2044 31.5392 19.2281 31.5155 19.2517 31.4682C19.299 31.3498 19.37 31.2077 19.4409 31.0893C19.4646 31.184 19.4646 31.2787 19.4882 31.3498V32.6047C19.5119 33.4097 19.5828 34.3805 19.7484 35.2093C19.7484 35.2093 19.772 33.7176 20.0322 33.5281C20.0322 33.5281 20.4815 36.3221 20.8836 37.364C20.9309 37.506 21.0018 37.6008 21.0491 37.6718V37.3876L21.0018 35.8486V35.6828C21.3092 36.3221 21.664 36.9614 22.066 37.6481C22.1843 37.8375 22.2789 38.027 22.3971 38.2164C21.6403 38.8794 20.9309 39.8502 20.4106 40.9867C20.3396 41.1761 20.245 41.3656 20.1741 41.555C20.1268 41.6734 20.1031 41.7681 20.0558 41.8865C20.0558 41.9101 20.0322 41.9575 20.0322 41.9812C20.0085 42.0522 19.9849 42.1469 19.9612 42.218C19.9612 42.2653 19.9376 42.289 19.9376 42.3363C19.9139 42.4074 19.8903 42.5021 19.8666 42.5731C19.8666 42.6205 19.843 42.6442 19.843 42.6915L19.772 43.0467C19.7484 43.1651 19.7247 43.2835 19.7247 43.4019C19.7247 43.4492 19.7247 43.4729 19.7011 43.5202C19.7011 43.615 19.6774 43.686 19.6774 43.7807C19.6774 43.8281 19.6774 43.8754 19.6538 43.9228C19.6538 44.0175 19.6301 44.0885 19.6301 44.1832V45.012C19.6301 45.1067 19.6301 45.2014 19.6538 45.3198V45.3908C19.6538 45.5092 19.6774 45.6276 19.7011 45.7697C19.7011 45.817 19.7011 45.8407 19.7247 45.888C19.7247 45.9828 19.7484 46.0538 19.772 46.1485C19.772 46.1959 19.7957 46.2432 19.7957 46.2906C19.8193 46.3616 19.8193 46.4563 19.843 46.5274C19.843 46.5747 19.8666 46.6221 19.8666 46.6694C19.8903 46.7405 19.9139 46.8115 19.9139 46.9062C19.9376 46.9536 19.9376 47.0009 19.9612 47.0719C19.9849 47.143 20.0085 47.2377 20.0322 47.3087C20.0558 47.3561 20.0558 47.4034 20.0795 47.4508C20.1031 47.5218 20.1268 47.6165 20.1504 47.6876C20.1741 47.7349 20.1741 47.7823 20.1977 47.8296C20.2214 47.9244 20.2687 48.0191 20.2923 48.0901C20.316 48.1375 20.316 48.1611 20.3396 48.2085L20.6944 48.9899C20.718 49.0372 20.7417 49.0609 20.7653 49.1082L20.9072 49.3924C20.9309 49.4397 20.9545 49.4871 21.0018 49.5345C21.0491 49.6055 21.0964 49.7002 21.1437 49.7712C21.1674 49.8186 21.2147 49.8659 21.2383 49.9133C21.2856 49.9843 21.3329 50.079 21.4038 50.1501C21.4511 50.1974 21.4748 50.2448 21.5221 50.3158C21.5694 50.3869 21.6403 50.4816 21.6876 50.5526C21.7349 50.6 21.7586 50.6473 21.8059 50.7184C21.8768 50.7894 21.9241 50.8841 21.9951 50.9551C22.0424 51.0025 22.066 51.0498 22.1133 51.0972C22.1843 51.1919 22.2552 51.2629 22.3498 51.3577L22.4681 51.476C22.5863 51.5944 22.7046 51.7365 22.8228 51.8549C22.8228 51.8549 22.7519 51.7602 22.6573 51.5708C22.6336 51.5471 22.61 51.4997 22.61 51.4524L22.539 51.3103C22.5154 51.2629 22.4917 51.2156 22.4681 51.1446C22.2789 50.7184 22.1133 50.1027 22.137 49.4397L22.3498 49.7239C22.4208 49.8896 22.539 50.1027 22.6573 50.3395C22.7046 50.4105 22.7519 50.5053 22.7755 50.5763C22.9647 50.9078 23.1539 51.2866 23.3904 51.6418C23.6742 52.0917 23.958 52.5179 24.2654 52.9204C24.2654 52.9204 23.9107 52.1627 23.7924 51.6655C23.7688 51.5234 23.7451 51.405 23.7688 51.334C23.7924 51.3577 23.8161 51.405 23.8634 51.4287C23.887 51.4524 23.9107 51.4997 23.958 51.5234C24.0053 51.5944 24.0762 51.6892 24.1708 51.8075L24.2181 51.8549C24.2654 51.9023 24.2891 51.9733 24.3364 52.0206C24.3837 52.0917 24.431 52.1627 24.5019 52.2337C24.9986 52.8731 25.6844 53.7255 26.1574 54.1753C26.3229 54.3174 26.4648 54.4358 26.5594 54.4832L25.8736 53.2519C27.4345 54.5305 33.9144 56.1643 40.2761 54.3411C41.0565 54.128 41.8133 53.8438 42.5701 53.5124C43.0194 53.3229 43.4688 53.0862 43.9181 52.8494L43.989 52.802C44.2965 52.6363 44.6039 52.4468 44.9114 52.2574C45.1479 52.1154 45.3844 51.9496 45.5972 51.8075C45.9756 51.5471 46.354 51.2629 46.7324 50.9551C46.756 50.9315 46.7797 50.9078 46.8033 50.9078C47.1581 50.6 47.5128 50.2685 47.8202 49.937C48.2459 49.4871 48.6243 49.0372 48.9554 48.5873L48.9791 48.5637C49.0737 48.4453 49.1446 48.3506 49.2156 48.2322L49.2392 48.2085C49.2629 48.1611 49.2865 48.1375 49.3102 48.0901C49.4284 47.9244 49.523 47.7823 49.6413 47.6165C49.6649 47.5692 49.6886 47.5455 49.7122 47.4981C49.7595 47.4034 49.8068 47.3324 49.8777 47.2377C49.925 47.1667 49.9487 47.1193 49.996 47.0483C50.0433 46.9772 50.0906 46.9062 50.1142 46.8352C50.1852 46.7168 50.2561 46.5747 50.3271 46.4563L50.398 46.3143L50.5399 46.0301L50.6109 45.888L50.6345 45.8407C50.6818 45.7223 50.7528 45.6039 50.8001 45.4855V45.4618C51.0129 45.2724 51.1548 45.083 51.2967 44.9172C51.3204 44.8936 51.344 44.8699 51.344 44.8462C51.4859 44.3963 51.5805 44.0412 51.5805 43.7097ZM13.5286 39.1161C13.5286 39.0925 13.5286 39.0688 13.5049 39.0214C13.434 38.6189 13.363 38.1927 13.3394 37.7665V37.6718C13.2684 37.6955 13.1975 37.7902 13.1029 37.9086C13.0793 37.9559 13.032 38.0033 13.0083 38.0743C12.7955 38.4768 12.6063 39.0451 12.6063 39.0451C12.6299 38.8557 12.6536 38.6663 12.6536 38.4768V38.4058C12.6772 38.2164 12.7009 38.0033 12.7245 37.8139V37.7428C12.7482 37.506 12.7955 37.2929 12.8428 37.0798C12.8428 37.0562 12.8428 37.0325 12.8664 36.9851V36.9614C12.8664 36.9378 12.8664 36.9141 12.8901 36.8904C12.8901 36.8431 12.9137 36.8194 12.9137 36.772C12.9374 36.6063 12.9847 36.4405 13.0083 36.2748C13.032 36.1327 13.0556 35.9907 13.0792 35.8723V35.8249C13.0792 35.8012 13.0793 35.7775 13.1029 35.7775V35.7302C13.1029 35.7065 13.1265 35.6592 13.1265 35.6355C13.1265 35.6118 13.1265 35.5881 13.1502 35.5644C13.1502 35.5171 13.1738 35.4697 13.1738 35.4461C13.1738 35.4224 13.1975 35.375 13.1975 35.3513C13.1975 35.304 13.2211 35.2566 13.2211 35.233C13.2211 35.2093 13.2211 35.1856 13.2448 35.1619C13.2448 35.1382 13.2448 35.1146 13.2684 35.1146C13.2684 35.0672 13.2921 35.0435 13.2921 35.0199V34.9488L13.2448 34.9962C13.1975 35.0199 13.1738 35.0672 13.1265 35.0909L13.0792 35.1382C13.0319 35.1856 12.9847 35.233 12.961 35.2803L12.9374 35.304L12.7955 35.5171L12.7718 35.5408C12.7718 35.5644 12.7482 35.5644 12.7482 35.5881L12.6772 35.7302V35.7775C12.6536 35.8486 12.6063 35.9196 12.5826 35.9907C12.5117 36.1801 12.4407 36.3695 12.3934 36.5352C12.3698 36.5826 12.3698 36.6536 12.3461 36.6773C12.3225 36.772 12.2988 36.8667 12.2988 36.8904C12.2988 36.8194 12.2988 36.772 12.3225 36.701C12.3225 36.5826 12.3461 36.4405 12.3461 36.3221C12.3461 36.2274 12.3698 36.109 12.3934 36.0143C12.3934 35.9907 12.3934 35.9433 12.4171 35.9196C12.4171 35.8723 12.4407 35.8249 12.4407 35.7775C12.4407 35.7302 12.4644 35.6828 12.4644 35.6355V35.5644C12.4644 35.5171 12.488 35.4461 12.488 35.3987V35.2803V35.233C12.488 35.2093 12.488 35.1856 12.5117 35.1619C12.5353 35.0909 12.559 34.9962 12.559 34.9251V34.9015C12.5826 34.8541 12.5826 34.7831 12.6063 34.7357V34.712C12.6299 34.5937 12.6772 34.4753 12.7009 34.3569V34.3095C12.7009 34.2858 12.7009 34.2622 12.7245 34.2385C12.7718 34.0491 12.8428 33.8596 12.8901 33.6939V33.6702C12.9374 33.5281 13.0083 33.3624 13.0556 33.2203V33.1966C13.0792 33.1256 13.1029 33.0783 13.1265 33.0072C13.1738 32.9125 13.1975 32.8178 13.2448 32.7231C13.2448 32.6994 13.2684 32.6521 13.3157 32.5573C13.3394 32.5337 13.3394 32.4863 13.363 32.4626C13.3867 32.4153 13.4103 32.3679 13.434 32.2969L13.4576 32.2495L13.8597 31.5155C13.8833 31.4918 13.8833 31.4445 13.907 31.4208V31.3971L13.9306 31.3498C13.9779 31.2787 14.0252 31.184 14.0725 31.113C14.1435 30.9946 14.1908 30.8762 14.2617 30.7815C14.38 30.5684 14.4746 30.379 14.5455 30.2843C14.5692 30.2132 14.5928 30.1895 14.6165 30.1659C14.5928 30.1659 14.4746 30.0712 14.2854 29.9528C14.0489 29.8107 13.7178 29.6213 13.3157 29.4319C13.1738 29.3608 13.0556 29.3135 12.9137 29.2424C12.7482 29.1714 12.559 29.1004 12.3698 29.0293C12.3225 29.0056 12.2752 29.0056 12.2279 28.982C12.0623 28.9346 11.9204 28.8873 11.7549 28.8399C11.6366 28.8162 11.5184 28.7925 11.4238 28.7689C11.3292 28.7452 11.2346 28.7452 11.14 28.7215C11.0927 28.7215 11.0454 28.7215 10.9981 28.6978C10.9508 28.6978 10.9035 28.6978 10.8562 28.6742C10.738 28.6742 10.5961 28.6505 10.4778 28.6505H10.2886C10.0048 28.6505 9.74468 28.6742 9.48454 28.7215H9.43724C8.96425 28.7925 8.51491 28.9109 8.06557 29.0767C7.92368 29.124 7.78178 29.1951 7.61623 29.2661C7.56893 29.2898 7.54529 29.3135 7.49799 29.3135L7.35609 29.3845C6.9304 29.5976 6.52836 29.8817 6.14997 30.1895H6.12632C5.79523 30.45 5.51144 30.7578 5.25129 31.0656L5.03845 31.3498C4.94385 31.4682 4.8729 31.5865 4.80195 31.7049C4.66006 31.918 4.51816 32.1548 4.39991 32.3916C4.35261 32.4863 4.30531 32.5573 4.28167 32.6521C4.28167 32.6757 4.25802 32.6757 4.25802 32.6994C4.02152 33.2677 3.83233 33.8596 3.76138 34.4989C3.73773 34.6173 3.73773 34.7357 3.71408 34.8778V34.9251C3.71408 35.0199 3.69043 35.1146 3.69043 35.233V35.6592C3.69043 35.7539 3.69043 35.8486 3.71408 35.9433V36.0617C3.71408 36.1327 3.73773 36.2038 3.73773 36.2748V36.2985C3.73773 36.3458 3.73773 36.3695 3.76138 36.4169C3.76138 36.4879 3.78503 36.5589 3.78503 36.6063C3.78503 36.6536 3.80868 36.701 3.80868 36.7483C3.83233 36.8194 3.83233 36.8667 3.85598 36.9378C3.85598 36.9851 3.87962 37.0325 3.90327 37.0798V37.1035L3.92692 37.1509V37.1982L3.95057 37.2456C3.97422 37.2929 3.97422 37.3403 3.99787 37.3876C4.02152 37.435 4.02152 37.506 4.04517 37.5534C4.06882 37.6008 4.09247 37.6481 4.09247 37.7191L4.11612 37.7665C4.13977 37.8139 4.13977 37.8375 4.16342 37.8849C4.18707 37.9322 4.21072 37.9796 4.23437 38.0506L4.30531 38.1927C4.32896 38.2164 4.32896 38.2401 4.35261 38.2637C4.37626 38.2874 4.37626 38.3111 4.39991 38.3348L4.47086 38.4768C4.49451 38.5242 4.51816 38.5952 4.56546 38.6426C4.58911 38.6899 4.61276 38.7373 4.63641 38.761C4.66006 38.8083 4.70735 38.8794 4.731 38.9267C4.75465 38.9741 4.7783 38.9978 4.80195 39.0451C4.8256 39.0925 4.8729 39.1635 4.9202 39.2109C4.94385 39.2582 4.9675 39.2819 4.99115 39.3056C5.03845 39.3529 5.0621 39.424 5.1094 39.4713C5.13304 39.495 5.15669 39.5423 5.18034 39.566C5.22764 39.6134 5.27494 39.6844 5.32224 39.7318C5.34589 39.7554 5.36954 39.7791 5.39319 39.8265C5.44049 39.8738 5.48779 39.9449 5.53508 39.9922L5.60603 40.0633C5.65333 40.1106 5.70063 40.1817 5.77158 40.229L5.84253 40.3L6.00807 40.4658C6.03172 40.4895 6.05537 40.5131 6.07902 40.5131C6.12632 40.5605 6.19727 40.6079 6.26822 40.6789C6.29187 40.7026 6.31552 40.7026 6.33916 40.7262C6.41011 40.7736 6.45741 40.821 6.52836 40.8683C6.55201 40.892 6.57566 40.892 6.57566 40.9157L6.7885 41.0577L6.8358 41.0814L7.04865 41.2235L7.09595 41.2472C7.16689 41.2945 7.26149 41.3419 7.33244 41.3892L7.37974 41.4129C7.45069 41.4603 7.54529 41.5076 7.61623 41.5313L7.66353 41.555C7.75813 41.6023 7.82908 41.626 7.92368 41.6734L7.94733 41.697C8.04192 41.7444 8.13652 41.7681 8.20747 41.8154H8.23112C8.32572 41.8391 8.42031 41.8865 8.51491 41.9101H8.53856C8.58586 41.9338 8.63316 41.9338 8.68046 41.9575C8.72776 41.9812 8.77506 41.9812 8.846 42.0049H8.86965C8.96425 42.0285 9.0825 42.0522 9.17709 42.0759C9.27169 42.0996 9.38994 42.1232 9.48454 42.1232C9.81563 42.1706 10.1467 42.1943 10.4778 42.218H10.7143C10.8326 42.218 10.9272 42.218 11.0454 42.1943C11.1873 42.1706 11.3528 42.1706 11.5184 42.1469C11.6603 42.1232 11.8022 42.0996 11.9204 42.0759C12.1333 42.0285 12.3461 41.9812 12.5353 41.9101C13.1502 41.7444 13.6705 41.5076 14.0016 41.2472C14.0016 41.2472 13.7887 40.3 13.6232 39.3529C13.5759 39.3056 13.5522 39.2109 13.5286 39.1161Z" fill="#90694C"/>
<path d="M28.7116 3.9303L28.6407 2.98318L29.1136 1.94135L29.3028 1.89399C28.9954 1.75193 28.617 1.65721 28.1913 1.58618C27.3399 1.46779 26.2521 1.58618 25.0223 1.89399C23.7925 2.20181 22.3972 2.7464 20.9309 3.48042C17.9748 4.94845 14.7111 7.19786 11.5421 10.0866C10.4306 11.0811 9.41367 12.1229 8.4677 13.141C7.54537 14.1355 6.71764 15.1537 5.96086 16.1245C4.42365 18.1371 3.26482 20.0787 2.50804 21.8309C2.0114 22.9911 1.70396 24.0566 1.58571 24.98C1.49112 25.643 1.51477 26.235 1.63301 26.7085C1.68031 26.8743 1.72761 26.9927 1.77491 27.1347C1.89316 27.4189 2.03505 27.6556 2.22425 27.8687L4.13985 29.8814L4.3527 30.0945L4.37635 30.0708C4.42365 29.9998 4.49459 29.9287 4.56554 29.8814L4.58919 29.8577L4.66014 29.7867C4.70744 29.7156 4.77839 29.6683 4.82569 29.5972C4.87298 29.5499 4.89663 29.5262 4.94393 29.5025C4.99123 29.4788 5.01488 29.4315 5.06218 29.4078L5.10948 29.3605C5.15678 29.3368 5.18043 29.2894 5.22773 29.2657C5.27502 29.2184 5.34597 29.171 5.39327 29.1237C5.41692 29.1 5.46422 29.0763 5.48787 29.0526H5.51152C5.58247 29.0053 5.62977 28.9579 5.70071 28.9106C5.74801 28.8869 5.77166 28.8632 5.81896 28.8159C5.88991 28.7685 5.93721 28.7211 6.00816 28.6738C6.05546 28.6501 6.0791 28.6264 6.1264 28.6028C6.19735 28.5554 6.2683 28.508 6.33925 28.4844C6.38655 28.4607 6.4102 28.437 6.4575 28.4133C6.52844 28.366 6.59939 28.3423 6.67034 28.2949C6.71764 28.2713 6.74129 28.2476 6.78859 28.2239L6.83589 28.2002C7.28523 26.9453 7.97106 25.5483 8.86974 24.1276C9.95761 22.3754 11.3529 20.5286 13.0084 18.6817C14.049 17.5215 15.1841 16.3612 16.4139 15.2484C17.9984 13.804 19.6302 12.5017 21.2384 11.3652C22.3263 10.6075 23.3905 9.92083 24.4311 9.32888C24.5257 9.28153 24.6203 9.21049 24.7385 9.16314C25.0223 8.99739 25.2824 8.85532 25.5662 8.71325C26.1575 8.40544 26.7487 8.1213 27.3163 7.88452L27.0325 7.55303L26.9852 7.50568L26.6305 7.10315L24.6676 4.73535L24.6912 3.03054L24.6676 3.00686L26.0629 2.58066L28.7116 3.9303Z" fill="#2F83C1"/>
<path d="M51.5805 43.7094C51.5805 43.7094 51.6278 43.3543 51.4386 43.0228C51.4386 42.9991 51.415 42.9754 51.415 42.9754L51.3913 42.9517L51.3204 42.8807C51.2731 42.8334 51.2258 42.786 51.1548 42.7386C51.1312 42.715 51.0839 42.6913 51.0366 42.6676C50.9183 42.6202 50.8001 42.5729 50.6345 42.5492C50.5163 42.5255 50.398 42.5255 50.2561 42.5255H50.067V42.5729C50.067 42.5966 50.0906 42.6202 50.0906 42.6676C50.0906 42.6913 50.0906 42.715 50.1143 42.715C50.1379 42.786 50.1615 42.9044 50.1852 42.9991C50.1852 42.9991 50.1852 43.0228 50.1616 43.0701V43.0938C50.0906 43.2596 49.9014 43.6384 49.4757 44.112C49.4048 44.2067 49.3338 44.2777 49.2392 44.3724C48.0568 45.6037 45.5026 47.3322 40.1105 48.303C38.2895 48.5634 36.5868 48.5871 35.1678 48.3977C33.0394 48.1372 31.4549 47.4506 30.6981 46.5271C30.6271 46.4561 30.5798 46.3614 30.5089 46.2903C30.4616 46.2193 30.4379 46.1719 30.3906 46.1009C30.367 46.0772 30.367 46.0536 30.3433 46.0299C30.0359 45.4616 29.894 44.846 29.894 44.254C29.894 43.52 30.1305 42.8333 30.5089 42.3124C30.8163 41.8862 31.2184 41.5547 31.715 41.4127C31.9515 41.3416 32.2116 41.2943 32.4718 41.318C32.5191 41.318 32.59 41.318 32.6846 41.3416C32.8502 41.3653 33.1103 41.389 33.4178 41.4363C33.4414 41.4363 33.4887 41.4363 33.5124 41.46C34.5293 41.5784 36.1374 41.7442 38.0767 41.6258C41.6241 41.4127 46.283 40.2998 50.5163 36.464V36.4403C50.5399 36.1088 50.4926 35.5405 50.0906 35.0906C50.0197 35.0196 49.9487 34.9486 49.8541 34.8775C49.8068 34.8302 49.7359 34.8065 49.6886 34.7592C49.6176 34.7355 49.5703 34.6881 49.523 34.6644L49.3102 34.5224V34.4987C49.2865 34.4513 49.2629 34.404 49.2156 34.3566C48.1277 32.6992 46.6141 31.7284 45.9993 31.2785C45.7155 31.0654 45.5263 30.9707 45.5263 30.9707C44.2255 30.1656 44.0364 29.9052 44.1546 27.7505C44.2019 26.9691 44.2728 25.9509 44.3674 24.5539C44.3674 24.3645 44.3911 24.1988 44.3911 24.033V23.9146V23.3464C44.3911 23.228 44.3674 23.1096 44.3674 23.0149C44.3674 22.9675 44.3674 22.9202 44.3438 22.8728C44.3201 22.7544 44.3201 22.636 44.2965 22.5176C44.2965 22.4703 44.2728 22.3993 44.2728 22.3519C44.2728 22.2809 44.2492 22.2335 44.2255 22.1625C44.2019 22.1151 44.2019 22.0441 44.1782 21.9967C44.1546 21.9257 44.1309 21.8547 44.1309 21.7836C44.1309 21.7599 44.1073 21.7363 44.1073 21.7126C44.1073 21.6889 44.0836 21.6652 44.0836 21.6416V21.6179L44.06 21.5468C44.0364 21.4995 44.0127 21.4521 44.0127 21.4048V21.3811L43.9891 21.3337L43.9654 21.2864C43.9181 21.1917 43.8945 21.097 43.8472 21.0259L43.8235 20.9549C43.7762 20.8839 43.7289 20.7891 43.6816 20.7181L43.658 20.6944L43.6343 20.6708C43.587 20.6234 43.5634 20.576 43.5161 20.5287L43.4688 20.4577C43.4215 20.3866 43.3742 20.3393 43.3269 20.2919L43.1377 20.1025C43.0667 20.0551 42.9958 20.0078 42.9248 19.9841C42.9012 19.9604 42.8775 19.9604 42.8539 19.9604L42.712 19.8894C42.6883 19.8894 42.6647 19.8657 42.641 19.8657C42.5937 19.842 42.5464 19.842 42.5228 19.8184C42.4991 19.8184 42.4755 19.7947 42.4282 19.7947C42.3809 19.7947 42.3572 19.771 42.3099 19.771H41.7897C41.766 19.771 41.7424 19.771 41.7187 19.7947C41.6951 19.7947 41.6714 19.7947 41.6478 19.8184C41.6005 19.8184 41.5532 19.842 41.4822 19.8657H41.4349C41.293 19.9131 41.1748 19.9604 41.0329 20.0078L40.9856 20.0315C40.9383 20.0551 40.891 20.0788 40.82 20.1025L40.7491 20.1262L40.6072 20.1972L40.5362 20.2446L40.3943 20.3156L40.3234 20.3629C40.2761 20.3866 40.2288 20.434 40.1815 20.4577L40.1342 20.4813C40.0869 20.5287 40.0159 20.5524 39.9686 20.5997L39.945 20.6234C39.8741 20.6708 39.8268 20.7181 39.7558 20.7418C39.6376 20.8128 39.5193 20.9075 39.4011 20.9786C39.3065 21.0496 39.2119 21.1206 39.0936 21.1917L39.0463 21.2154C38.9517 21.2864 38.8335 21.3574 38.7389 21.4048L38.6916 21.4285C38.597 21.4995 38.4787 21.5468 38.3841 21.6179L38.3368 21.6416C38.2422 21.7126 38.124 21.7599 38.0057 21.8073L37.9584 21.831C37.8402 21.8783 37.7456 21.9257 37.6274 21.973L37.5801 21.9967C37.4618 22.0441 37.3436 22.0678 37.2253 22.1151H37.2017C37.0834 22.1388 36.9415 22.1625 36.8233 22.1861C36.6104 22.2098 36.3739 22.2335 36.1611 22.2335C35.8063 22.2335 35.4516 22.2098 35.0732 22.1625L34.7185 22.0914C34.6712 22.0914 34.6239 22.0678 34.6002 22.0678C34.2928 21.9967 33.9617 21.9257 33.6543 21.8547C33.5124 21.831 33.3941 21.7836 33.2522 21.7599C33.0394 21.7126 32.8265 21.6652 32.59 21.6179C32.5427 21.6179 32.4954 21.5942 32.4718 21.5942C32.4481 21.5942 32.4008 21.5705 32.3772 21.5705C32.3299 21.5705 32.2826 21.5468 32.2353 21.5468C32.188 21.5468 32.1407 21.5232 32.0934 21.5232H32.0461C31.9988 21.5232 31.9515 21.4995 31.9278 21.4995C31.8332 21.4758 31.7386 21.4521 31.6204 21.4521C31.5968 21.4521 31.5495 21.4521 31.5258 21.4285C31.4549 21.4285 31.3839 21.4048 31.313 21.4048C31.2657 21.4048 31.242 21.4048 31.1947 21.3811C31.1238 21.3811 31.0765 21.3574 31.0055 21.3574H29.9176C29.7994 21.3574 29.7048 21.3811 29.5865 21.3811H29.492C29.421 21.3811 29.3501 21.4048 29.2791 21.4048H29.2555C29.2082 21.4048 29.1845 21.4285 29.1372 21.4285C29.0663 21.4521 28.9953 21.4521 28.9244 21.4758C28.8771 21.4758 28.8298 21.4995 28.8061 21.4995C28.7352 21.5232 28.6642 21.5468 28.5933 21.5468C28.546 21.5468 28.5223 21.5705 28.475 21.5942C28.4041 21.6179 28.3095 21.6416 28.2385 21.6652C28.1912 21.6889 28.1676 21.6889 28.1439 21.7126C28.0257 21.7599 27.9074 21.8073 27.8128 21.8547C26.9142 22.3756 26.1337 23.0859 25.5425 23.891C25.3297 24.1751 25.1405 24.4592 24.9749 24.7434C24.7857 25.0512 24.6438 25.3827 24.5019 25.7142C24.4546 25.8089 24.431 25.9036 24.3837 25.9983C24.3364 26.1641 24.2654 26.3298 24.2181 26.4955C24.2181 26.5192 24.2181 26.5429 24.1945 26.5429C24.1472 26.7323 24.0999 26.9217 24.0526 27.1348C24.0053 27.3479 23.9816 27.5374 23.958 27.7505C23.9343 27.8689 23.9343 27.9636 23.9343 28.082C23.9107 28.3898 23.9107 28.6739 23.9343 28.9817V29.0528C23.9343 29.1238 23.9343 29.1948 23.958 29.2895C23.9816 29.5026 24.0053 29.7157 24.0526 29.9289C24.0762 29.9999 24.0999 30.0709 24.0999 30.1656C24.1235 30.2367 24.1235 30.3077 24.1472 30.3787C24.2891 30.9233 24.5019 31.4206 24.7621 31.8468C25.7317 33.5279 27.3399 34.5461 28.5223 35.0906C28.9717 35.2801 29.4447 35.4695 29.9413 35.6352L29.894 35.6826C29.7994 35.7063 29.7048 35.73 29.5865 35.7536C29.421 35.801 29.2082 35.872 28.9953 35.9431C28.7588 36.0141 28.475 36.1325 28.1912 36.2509C27.4345 36.5587 26.5831 37.0086 25.8263 37.6242C25.7317 37.6952 25.6371 37.7899 25.5425 37.861C25.377 38.003 25.2351 38.1451 25.0932 38.3109L25.0459 38.3582L24.9749 38.4292C24.9276 38.5003 24.8567 38.5476 24.8094 38.6187L24.7384 38.6897C24.6675 38.7844 24.5965 38.8791 24.5492 38.9738C24.4783 39.0686 24.431 39.1633 24.36 39.258C23.9107 40.0393 23.6505 40.9865 23.7215 42.123V42.0757C23.7215 42.052 23.7215 42.0283 23.7451 42.0046V41.9809C23.7451 41.9573 23.7688 41.9336 23.7688 41.8862V41.8626C23.7688 41.8389 23.7924 41.7915 23.7924 41.7442C23.7924 41.6968 23.8161 41.6731 23.8397 41.6258V41.6021C23.8634 41.5547 23.8634 41.5074 23.887 41.46V41.4363C23.9107 41.389 23.9107 41.3416 23.9343 41.2943V41.2706C23.958 41.2232 23.9816 41.1759 24.0053 41.1049L24.0289 41.0812C24.0526 41.0338 24.0762 40.9628 24.1235 40.9154C24.1708 40.8207 24.2181 40.7497 24.2654 40.655C24.2891 40.6313 24.3127 40.5839 24.3364 40.5603L24.36 40.5366L24.5019 40.3235C24.5492 40.2761 24.5965 40.2051 24.6438 40.1577L24.6911 40.1104C24.7384 40.063 24.7621 40.0157 24.8094 39.992L24.8567 39.9446C24.904 39.8973 24.9749 39.8499 25.0222 39.7789C25.0222 39.7789 24.0053 42.0993 24.4546 43.9225V43.8989V43.8515V43.7805V43.6858V43.5674C24.4546 43.52 24.4546 43.4727 24.4783 43.4253C24.4783 43.3779 24.4783 43.3306 24.5019 43.2832V43.2596C24.5019 43.2122 24.5256 43.1412 24.5256 43.0938V43.0465C24.5492 42.9754 24.5492 42.9281 24.5729 42.857V42.8333C24.5965 42.7623 24.6202 42.6913 24.6202 42.6439C24.6202 42.6202 24.6438 42.5966 24.6438 42.5729L24.6675 42.5255C24.6911 42.4782 24.7148 42.4071 24.7384 42.3598C24.7621 42.2888 24.8094 42.2177 24.8567 42.1467C24.8567 42.123 24.8803 42.0993 24.8803 42.0993L25.0222 41.8862C25.0222 41.8862 24.9749 42.4545 24.9749 43.1412C24.9749 43.2596 24.9749 43.3543 24.9986 43.4727C24.9986 43.5437 24.9986 43.6147 25.0222 43.6858C24.9986 44.1593 24.9986 44.6329 25.0459 45.1301C25.1168 45.9588 25.3297 46.8586 25.6844 47.782C25.6844 47.782 25.3533 46.7165 25.8263 45.651L25.9682 45.9352C26.0155 46.243 26.0628 46.6929 26.1574 47.1901C26.252 48.0188 26.6304 50.505 28.3331 52.2335C28.3331 52.2335 27.6946 51.4048 27.7892 50.3393C27.8601 50.4813 27.9311 50.5997 27.9784 50.7181C28.2622 51.2627 28.8298 52.2572 29.4683 52.9675C29.4683 52.9675 28.9717 51.9967 29.0899 51.7836C29.0899 51.7836 30.7454 53.8436 31.2657 54.033L30.5798 52.8965L30.5562 52.8728C32.9448 54.625 36.2557 55.2643 40.3234 54.1277C41.0329 53.9383 41.7424 53.6779 42.4991 53.37C42.9485 53.1806 43.3978 52.9438 43.8472 52.7071L43.9181 52.6597C44.2255 52.494 44.533 52.3045 44.8404 52.1151C45.0769 51.9731 45.3134 51.8073 45.5263 51.6652C45.9047 51.4048 46.283 51.1206 46.6614 50.8128C46.6851 50.7892 46.7087 50.7655 46.7324 50.7655C47.0871 50.4577 47.4419 50.1262 47.7493 49.7947C48.175 49.3448 48.5534 48.8949 48.8845 48.445L48.9081 48.4214C49.0027 48.303 49.0737 48.2083 49.1446 48.0899L49.1683 48.0662C49.1919 48.0188 49.2156 47.9951 49.2392 47.9478C49.3575 47.782 49.4521 47.64 49.5703 47.4742C49.594 47.4269 49.6176 47.4032 49.6413 47.3558C49.6886 47.2611 49.7359 47.1901 49.8068 47.0954C49.8541 47.0244 49.8778 46.977 49.9251 46.906C49.9724 46.8349 50.0197 46.7639 50.0433 46.6929C50.1143 46.5745 50.1852 46.4324 50.2561 46.314L50.3271 46.1719L50.469 45.8878L50.5399 45.7457L50.5636 45.6984C50.6109 45.58 50.6818 45.4616 50.7291 45.3432V45.3195C50.942 45.1301 51.0839 44.9407 51.2258 44.7749C51.2494 44.7513 51.2731 44.7276 51.2731 44.7039C51.4859 44.3961 51.5805 44.0409 51.5805 43.7094ZM13.3394 37.6716C13.2684 37.6952 13.1975 37.7899 13.1029 37.9083C13.0793 37.9557 13.032 38.003 13.0083 38.0741C12.7955 38.4766 12.6063 39.0449 12.6063 39.0449C12.6299 38.8554 12.6536 38.666 12.6536 38.4766V38.4056C12.6772 38.2161 12.7009 38.003 12.7245 37.8136V37.7426C12.7482 37.5058 12.7955 37.2927 12.8428 37.0796C12.8428 37.0559 12.8428 37.0322 12.8664 36.9849V36.9612C12.8664 36.9375 12.8664 36.9139 12.8901 36.8902C12.8901 36.8428 12.9137 36.8191 12.9137 36.7718C12.9374 36.606 12.9847 36.4403 13.0083 36.2745C13.032 36.1325 13.0556 35.9904 13.0793 35.872V35.8247C13.0793 35.801 13.0793 35.7773 13.1029 35.7773V35.73C13.1029 35.7063 13.1266 35.6589 13.1266 35.6352C13.1266 35.6116 13.1266 35.5879 13.1502 35.5642C13.1502 35.5169 13.1739 35.4695 13.1739 35.4458C13.1739 35.4221 13.1975 35.3748 13.1975 35.3511C13.1975 35.3038 13.2212 35.2564 13.2212 35.2327C13.2212 35.209 13.2212 35.1854 13.2448 35.1617C13.2448 35.138 13.2448 35.1143 13.2684 35.1143C13.2684 35.067 13.2921 35.0433 13.2921 35.0196V34.9486L13.2448 34.9959C13.1975 35.0196 13.1739 35.067 13.1266 35.0906L13.0793 35.138C13.032 35.1854 12.9847 35.2327 12.961 35.2801L12.9374 35.3038L12.7955 35.5169L12.7718 35.5405C12.7718 35.5642 12.7482 35.5642 12.7482 35.5879L12.6772 35.73V35.7773C12.6536 35.8483 12.6063 35.9194 12.5826 35.9904C12.5117 36.1798 12.4407 36.3693 12.3934 36.535C12.3698 36.5824 12.3698 36.6534 12.3461 36.6771C12.3225 36.7718 12.2988 36.8665 12.2988 36.8902C12.2988 36.8191 12.2988 36.7718 12.3225 36.7008C12.3225 36.5824 12.3461 36.4403 12.3461 36.3219C12.3461 36.2272 12.3698 36.1088 12.3934 36.0141C12.3934 35.9904 12.3934 35.9431 12.4171 35.9194C12.4171 35.872 12.4407 35.8247 12.4407 35.7773C12.4407 35.73 12.4644 35.6826 12.4644 35.6352V35.5642C12.4644 35.5169 12.488 35.4458 12.488 35.3985V35.2801V35.2327C12.488 35.209 12.488 35.1854 12.5117 35.1617C12.5353 35.0906 12.559 34.9959 12.559 34.9249V34.9012C12.5826 34.8539 12.5826 34.7828 12.6063 34.7355V34.7118C12.6299 34.5934 12.6772 34.475 12.7009 34.3566V34.3093C12.7009 34.2856 12.7009 34.2619 12.7245 34.2382C12.7718 34.0488 12.8428 33.8594 12.8901 33.6936V33.67C12.9374 33.5279 13.0083 33.3622 13.0556 33.2201V33.1964C13.0793 33.1254 13.1029 33.078 13.1266 33.007C13.1739 32.9123 13.1975 32.8176 13.2448 32.7229C13.2448 32.6992 13.2684 32.6518 13.3157 32.5571C13.3394 32.5334 13.3394 32.4861 13.363 32.4624C13.3867 32.415 13.4103 32.3677 13.434 32.2966L13.4576 32.2493C13.434 32.2256 13.3867 32.2256 13.363 32.2019H13.3394L13.2921 32.1783C13.0793 32.0835 12.8428 31.9888 12.6063 31.9178H12.559C12.3934 31.8704 12.2515 31.8468 12.086 31.8231C11.9914 31.8231 11.8968 31.7994 11.8022 31.7994H11.5657C11.4474 31.7994 11.3292 31.8231 11.2109 31.8231C11.1637 31.8231 11.14 31.8231 11.0927 31.8468C11.0454 31.8468 10.9745 31.8704 10.9272 31.8704C10.9035 31.8704 10.8799 31.8704 10.8562 31.8941C10.8089 31.8941 10.7853 31.9178 10.738 31.9178C10.667 31.9415 10.5724 31.9652 10.5015 31.9888C10.4778 31.9888 10.4305 32.0125 10.4069 32.0125C10.3123 32.0599 10.194 32.0835 10.0994 32.1309C10.0521 32.1546 10.0285 32.1783 9.98118 32.1783L9.83928 32.2493L9.79198 32.273C9.74469 32.2966 9.69739 32.3203 9.65009 32.3677C9.60279 32.3914 9.55549 32.415 9.50819 32.4624C9.46089 32.4861 9.41359 32.5334 9.36629 32.5571C9.34264 32.5808 9.29535 32.6045 9.2717 32.6281C9.20075 32.6992 9.10615 32.7702 9.0352 32.8412L8.91696 32.9596C8.84601 33.0307 8.79871 33.1017 8.72776 33.1727L8.70411 33.1964C8.68046 33.2438 8.63316 33.2674 8.60951 33.3148L8.53856 33.3858C8.42032 33.5516 8.30207 33.741 8.20747 33.9304C8.18382 33.9541 8.18382 33.9778 8.16017 34.0015C8.11288 34.0962 8.08923 34.1909 8.04193 34.2856C8.01828 34.333 8.01828 34.3566 7.99463 34.404C7.97098 34.4987 7.92368 34.5934 7.90003 34.7118V34.8065C7.87638 34.8775 7.87638 34.9486 7.85273 35.0196C7.85273 35.067 7.85273 35.0906 7.82908 35.138C7.82908 35.1854 7.82908 35.209 7.80543 35.2564V35.3511C7.80543 35.4695 7.78178 35.5879 7.80543 35.7063C7.80543 35.801 7.80543 35.8957 7.82908 35.9904V36.0378C7.82908 36.0851 7.85273 36.1325 7.85273 36.1798C7.87638 36.3693 7.92368 36.535 7.97098 36.7244C8.01828 36.8665 8.06558 36.9849 8.11288 37.1033C8.20747 37.3401 8.32572 37.5532 8.46762 37.7663C8.75141 38.1925 9.1298 38.5713 9.57914 38.8554C9.81563 39.0212 10.0994 39.1396 10.3832 39.2343C10.6434 39.329 10.9272 39.4 11.2346 39.4237C11.3055 39.4237 11.3765 39.4474 11.4238 39.4474H11.7312C11.8258 39.4474 11.9204 39.4237 12.015 39.4237C12.0623 39.4237 12.1333 39.4237 12.1806 39.4C12.3225 39.3764 12.4407 39.3527 12.5826 39.329H12.6063C12.6536 39.3053 12.7009 39.3053 12.7718 39.2817C12.9374 39.2343 13.1029 39.1633 13.2448 39.0922L13.2684 39.0686C13.3157 39.0449 13.363 39.0212 13.3867 39.0212C13.3157 38.6187 13.2448 38.1925 13.2212 37.7663C13.3394 37.7189 13.3394 37.6952 13.3394 37.6716Z" fill="#FCE9CD"/>
<path d="M50.1374 42.7386C50.1374 42.7149 50.1374 42.6913 50.1138 42.6913C50.0901 42.6439 50.0901 42.6202 50.0901 42.5965C49.9719 42.2177 49.83 41.9336 49.6881 41.7205C49.5225 41.46 49.3806 41.3179 49.3806 41.3179L49.4516 41.0338C49.4752 40.9154 49.4989 40.797 49.4989 40.6786C49.5935 39.8262 49.3806 39.1632 49.1914 38.7844C49.1678 38.7134 49.1441 38.666 49.1205 38.6187C48.9786 38.7134 48.8603 38.8081 48.7184 38.9028C46.1643 40.6313 43.3027 41.7441 40.2046 42.2177C38.0762 42.5492 35.8295 42.5729 33.4882 42.2887L33.5355 42.3124C33.5355 42.3124 32.1165 42.5018 31.7382 43.8515L31.7618 43.8752L31.6436 44.7749C31.6909 46.0062 32.2348 46.7639 32.8733 47.1664C33.5355 47.4269 34.3396 47.6163 35.2383 47.7347C36.7755 47.9241 38.5728 47.8767 40.3702 47.5926C42.7824 47.2611 46.1879 45.9825 48.6238 44.325C49.1678 43.9462 49.6881 43.5437 50.1138 43.1411L50.1374 43.1175L50.1611 43.0938C50.1611 42.928 50.1374 42.8333 50.1374 42.7386Z" fill="white"/>
<path d="M45.5252 31.0418C44.2245 30.2368 44.0353 29.9763 44.1535 27.8216C44.2008 27.0403 44.2718 26.0221 44.3664 24.6251C44.3664 24.4357 44.39 24.2699 44.39 24.1042V23.9858V23.4175C44.39 23.2991 44.3664 23.1808 44.3664 23.086C44.3664 23.0387 44.3664 22.9913 44.3427 22.944C44.3191 22.8256 44.3191 22.7072 44.2954 22.5888C44.2954 22.5415 44.2718 22.4704 44.2718 22.4231C44.2718 22.352 44.2481 22.3047 44.2245 22.2336C44.2008 22.1863 44.2008 22.1152 44.1772 22.0679C43.988 21.7838 43.7751 21.547 43.515 21.3339L43.4677 21.2865L43.4204 21.2628H43.3968C43.3495 21.2392 43.3258 21.2155 43.2785 21.1918C43.2312 21.1681 43.1839 21.1445 43.1603 21.1208C42.7819 20.884 42.3325 20.7419 41.8832 20.6709C41.6231 20.6235 41.3629 20.6235 41.1028 20.6235C40.9845 20.6235 40.8426 20.6472 40.7244 20.6472C40.3933 20.6946 40.0622 20.7656 39.7074 20.8603C39.5892 20.9313 39.471 21.0261 39.3527 21.0971C39.2581 21.1681 39.1635 21.2392 39.0453 21.3102L38.998 21.3339C38.9034 21.4049 38.7851 21.4759 38.6905 21.5233L38.6432 21.547C38.5486 21.618 38.4304 21.6654 38.3358 21.7364L38.2885 21.7601C38.1939 21.8311 38.0756 21.8785 37.9574 21.9258L37.9101 21.9495C37.7918 21.9969 37.6972 22.0442 37.579 22.0916L37.5317 22.1152C37.4135 22.1626 37.2952 22.1863 37.177 22.2336H37.1533C37.0351 22.2573 36.8932 22.281 36.7749 22.3047C36.5621 22.3283 36.3256 22.352 36.1127 22.352C35.758 22.352 35.4033 22.3283 35.0249 22.281L34.6701 22.21C34.6228 22.21 34.5755 22.1863 34.5519 22.1863C34.2444 22.1152 33.9133 22.0442 33.6059 21.9732C33.464 21.9495 33.3458 21.9021 33.2039 21.8785C32.991 21.8311 32.7782 21.7838 32.5417 21.7364C32.4944 21.7364 32.4471 21.7127 32.4234 21.7127C32.2342 21.7127 32.045 21.7364 31.8795 21.7601H31.8322C31.2883 21.8311 30.768 21.9495 30.224 22.1389C30.2004 22.1389 30.1767 22.1626 30.1294 22.1626C30.0348 22.1863 29.9639 22.2336 29.8693 22.2573C29.751 22.3047 29.6564 22.352 29.5382 22.3994C28.7578 22.7309 28.0246 23.2044 27.3152 23.7964C27.0314 24.0332 26.7712 24.2936 26.5111 24.5541C26.1327 24.9566 25.8016 25.3828 25.4941 25.8327C25.4705 25.8564 25.4705 25.88 25.4468 25.9037C25.2813 26.1405 25.1394 26.401 25.0212 26.6377C24.9739 26.7325 24.9266 26.8272 24.8793 26.8982V26.9219C24.7374 27.2297 24.6191 27.5138 24.5245 27.8216C24.5245 27.8453 24.5245 27.869 24.5009 27.869C24.4772 27.9164 24.4772 27.9637 24.4536 28.0111C24.4063 28.1531 24.359 28.2952 24.3353 28.4373C24.288 28.5793 24.2644 28.7214 24.2407 28.8872C24.2407 28.9108 24.2171 28.9582 24.2171 28.9819C24.1934 29.0766 24.1934 29.1713 24.1698 29.2423C24.1225 29.5738 24.0988 29.9053 24.0752 30.2368V30.4736C24.2171 31.0182 24.4299 31.5154 24.6901 31.9416C25.6597 33.6227 27.2679 34.6409 28.4503 35.1855C28.8997 35.3749 29.3727 35.5643 29.8693 35.7301L29.8929 35.7538L29.9166 35.7301C29.9875 35.6827 30.0348 35.6354 30.1058 35.588C30.1294 35.5643 30.1531 35.5643 30.1767 35.5407L30.3896 35.3986C30.4132 35.3749 30.4369 35.3749 30.4605 35.3512L30.6734 35.2092C30.697 35.1855 30.7207 35.1855 30.7443 35.1618C30.8153 35.1145 30.8862 35.0671 30.9808 35.0197C31.0045 34.9961 31.0281 34.9961 31.0518 34.9724C31.1227 34.925 31.2173 34.8777 31.2883 34.8303C31.3119 34.8066 31.3356 34.8066 31.3592 34.783C31.4302 34.7356 31.5247 34.6883 31.5957 34.6409C31.6193 34.6172 31.6666 34.6172 31.6903 34.5935C31.7612 34.5462 31.8558 34.4988 31.9268 34.4515C31.9504 34.4278 31.9977 34.4041 32.0214 34.4041C32.0923 34.3568 32.1869 34.3094 32.2815 34.2621C32.3288 34.2384 32.3525 34.2147 32.3998 34.2147C32.4944 34.1673 32.5653 34.12 32.6599 34.0963C32.7072 34.0726 32.7309 34.049 32.7782 34.049C32.8728 34.0016 32.9437 33.9779 33.0383 33.9306L33.1802 33.8595C33.2748 33.8122 33.3458 33.7885 33.4403 33.7411C33.4876 33.7175 33.5349 33.6938 33.6059 33.6701C33.7005 33.6464 33.7714 33.5991 33.866 33.5754C33.9133 33.5517 33.9843 33.528 34.0316 33.5044C34.1262 33.4807 34.1971 33.4333 34.2917 33.4096C34.3627 33.386 34.41 33.3623 34.4809 33.3386C34.5755 33.3149 34.6465 33.2676 34.7411 33.2439L34.9539 33.1729C35.0249 33.1492 35.1195 33.1255 35.1904 33.0782C35.2614 33.0545 35.356 33.0308 35.4269 33.0071C35.4979 32.9834 35.5924 32.9598 35.6634 32.9361C35.758 32.9124 35.8526 32.8887 35.9235 32.8651C35.9945 32.8414 36.0654 32.8177 36.16 32.794C36.2546 32.7703 36.3492 32.7467 36.4675 32.6993C36.5148 32.6756 36.5621 32.6756 36.6094 32.6519C36.9878 31.6812 38.1466 29.266 40.1095 29.0055C40.3223 28.9819 40.5115 28.9582 40.7007 28.9582H40.8426C40.819 28.8161 40.7953 28.674 40.7953 28.5083C40.7244 27.4665 41.0555 26.5904 41.5048 26.5667C41.8595 26.543 42.1433 27.0639 42.1906 27.2297C42.3325 27.5375 42.4271 27.94 42.4508 28.3899C42.4744 28.7924 42.4271 29.1713 42.3562 29.5028C42.4035 29.5501 42.4271 29.5975 42.4744 29.6212C42.9238 30.1894 42.9947 30.9471 42.9711 31.5154C43.1366 31.4917 43.3258 31.4917 43.515 31.468C43.5623 31.468 43.6096 31.4681 43.6569 31.4444H43.7515C43.9643 31.4207 44.2008 31.397 44.4373 31.397C44.9576 31.3497 45.4779 31.326 46.0218 31.3023C45.7144 31.1366 45.5252 31.0418 45.5252 31.0418ZM50.4679 45.6275C49.6166 46.3852 48.7179 47.0008 47.8192 47.498C47.3699 47.7348 46.9205 47.9479 46.4948 48.1373C45.5252 48.5636 44.6029 48.8477 43.7751 49.0608C41.9541 49.5107 40.7007 49.5107 40.7007 49.5107C41.694 50.0553 42.9474 50.0553 43.7988 49.9842C44.39 49.9369 44.7921 49.8185 44.7921 49.8185C44.7684 50.1737 44.7211 50.5051 44.6738 50.8366C44.6029 51.1918 44.5083 51.4996 44.39 51.7838V51.8074C44.2481 52.1626 44.0589 52.4704 43.8697 52.7546C43.8461 52.7782 43.8224 52.8256 43.7988 52.8493L43.8697 52.8019C44.1772 52.6362 44.4846 52.4467 44.7921 52.2573C45.0286 52.1152 45.2651 51.9495 45.4779 51.8074C45.8563 51.547 46.2347 51.2628 46.6131 50.955C46.6367 50.9314 46.6604 50.9077 46.684 50.9077C47.0388 50.5999 47.3935 50.2684 47.701 49.9369C48.1266 49.487 48.505 49.0371 48.8361 48.5872L48.8598 48.5636C48.9544 48.4452 49.0253 48.3504 49.0963 48.2321L49.1199 48.2084C49.1436 48.161 49.1672 48.1373 49.1909 48.09C49.3091 47.9242 49.4037 47.7822 49.522 47.6164C49.5456 47.5691 49.5693 47.5454 49.5929 47.498C49.6402 47.4033 49.6875 47.3323 49.7584 47.2376C49.8057 47.1665 49.8294 47.1192 49.8767 47.0482C49.924 46.9771 49.9713 46.9061 49.9949 46.8351C50.0659 46.7167 50.1368 46.5746 50.2078 46.4562L50.2787 46.3141L50.4206 46.03L50.4916 45.8879L50.5152 45.8406C50.5625 45.7222 50.6335 45.6038 50.6808 45.4854C50.5862 45.5091 50.5389 45.5564 50.4679 45.6275ZM28.8997 36.0853C28.6632 36.1563 28.3794 36.2747 28.0956 36.3931C27.3388 36.7009 26.4874 37.1508 25.7306 37.7664C25.636 37.8374 25.5414 37.9321 25.4468 38.0032C25.2813 38.1452 25.1394 38.2873 24.9975 38.4531L24.9502 38.5004L24.8793 38.5714C24.832 38.6425 24.761 38.6898 24.7137 38.7609L24.6428 38.8319C24.5718 38.9266 24.5009 39.0213 24.4536 39.116C24.3826 39.2107 24.3353 39.3055 24.2644 39.4002C23.815 40.1815 23.5549 41.1287 23.6258 42.2652V42.2179C23.6258 42.1942 23.6258 42.1705 23.6495 42.1468V42.1231C23.6495 42.0995 23.6731 42.0758 23.6731 42.0284V42.0047C23.6731 41.9811 23.6968 41.9337 23.6968 41.8864C23.6968 41.839 23.7204 41.8153 23.7441 41.768V41.7443C23.7677 41.6969 23.7677 41.6496 23.7914 41.6022V41.5785C23.815 41.5312 23.815 41.4838 23.8387 41.4365V41.4128C23.8623 41.3654 23.886 41.3181 23.9096 41.2471L23.9333 41.2234C23.9569 41.176 23.9806 41.105 24.0279 41.0576C24.0752 40.9629 24.1225 40.8919 24.1698 40.7972C24.1934 40.7735 24.2171 40.7261 24.2407 40.7025L24.2644 40.6788L24.4063 40.4657C24.4536 40.4183 24.5009 40.3473 24.5482 40.2999L24.5955 40.2526C24.6428 40.2052 24.6664 40.1579 24.7137 40.1342L24.761 40.0868C24.8083 40.0395 24.8793 39.9921 24.9266 39.9211C24.9266 39.9211 23.9096 42.2415 24.359 44.0647V44.0411V43.9937V43.9227V43.828V43.7096C24.359 43.6622 24.359 43.6149 24.3826 43.5675C24.3826 43.5201 24.3826 43.4728 24.4063 43.4254V43.4018C24.4063 43.3544 24.4299 43.2834 24.4299 43.236V43.1886C24.4536 43.1176 24.4536 43.0703 24.4772 42.9992V42.9755C24.5009 42.9045 24.5245 42.8335 24.5245 42.7861C24.5245 42.7624 24.5482 42.7388 24.5482 42.7151L24.5718 42.6677C24.5955 42.6204 24.6191 42.5493 24.6428 42.502C24.6664 42.431 24.7137 42.3599 24.761 42.2889C24.761 42.2652 24.7847 42.2415 24.7847 42.2415L24.9266 42.0284C24.9266 42.0284 24.8793 42.5967 24.8793 43.2834C24.8793 43.4018 24.8793 43.4965 24.9029 43.6149C24.9029 43.6859 24.9029 43.7569 24.9266 43.828C24.9739 43.0939 25.1158 42.4073 25.3049 41.768C25.3522 41.6022 25.4232 41.4128 25.4705 41.2471C25.4705 41.2234 25.4941 41.1997 25.4941 41.176C25.5651 41.0103 25.6124 40.8682 25.6833 40.7025C25.707 40.6788 25.707 40.6551 25.7306 40.6077C25.8016 40.4657 25.8725 40.2999 25.9435 40.1579C25.9671 40.1342 25.9671 40.1105 25.9671 40.0868C26.1327 39.779 26.2982 39.4949 26.4638 39.2344C26.4874 39.2107 26.4874 39.1871 26.5111 39.1634C26.582 39.0687 26.653 38.974 26.7239 38.8556C26.7476 38.8319 26.7476 38.8082 26.7712 38.7845C26.7949 38.7609 26.7949 38.7372 26.8185 38.7135C26.9131 38.5951 26.9841 38.4767 27.0787 38.3583C27.1023 38.3347 27.1023 38.311 27.126 38.311C27.2206 38.1926 27.3152 38.0742 27.4097 37.9795C27.528 37.8374 27.6462 37.719 27.7645 37.577C27.8591 37.4823 27.93 37.3875 28.0246 37.3165L28.1192 37.2218C28.3084 37.0324 28.4976 36.843 28.6868 36.6772C29.2071 36.2036 29.6328 35.8958 29.7747 35.8011C29.6801 35.8248 29.5855 35.8485 29.4672 35.8722C29.3254 35.9432 29.1362 36.0142 28.8997 36.0853Z" fill="#F2D2AC"/>
<path d="M42.5221 30.9469C42.5221 30.9469 42.5221 30.8995 42.4984 30.8048C42.4038 30.4733 42.0727 29.6683 40.772 29.7867C39.4004 29.9288 38.9274 31.0416 38.8091 31.4205C38.7855 31.4915 38.7855 31.5389 38.7855 31.5389L38.8328 31.5625C38.9983 31.4205 39.3294 31.4205 39.6369 31.6336C39.7788 31.7283 39.8734 31.823 39.9679 31.9414C40.0862 32.1308 40.1098 32.3202 40.0389 32.4623L39.9679 32.5333C39.9679 32.5333 40.0152 32.557 40.1098 32.5807C40.4882 32.6991 41.5525 32.9122 42.12 32.1782C42.1437 32.1308 42.1673 32.1071 42.191 32.0598C42.0727 32.0124 42.0254 31.8467 42.0254 31.6336C42.0254 31.5389 42.0491 31.4441 42.0727 31.3258C42.1437 31.0416 42.3565 30.8759 42.5221 30.9469ZM35.6874 41.0811C34.7887 41.2705 34.0083 41.4126 33.4171 41.5073C33.4407 41.5073 33.488 41.5073 33.5117 41.531C34.5286 41.6493 36.1367 41.8151 38.076 41.6967C41.6234 41.4836 46.2823 40.3707 50.5156 36.5349V36.5112C50.5392 36.1797 50.4919 35.6115 50.0899 35.1616C50.0189 35.0905 49.948 35.0195 49.8534 34.9485C49.8298 34.9485 49.8298 34.9248 49.8061 34.9248C49.6879 34.8538 49.5933 34.8064 49.4987 34.7354L49.2858 34.5933V34.5696C49.0257 34.9485 48.7182 35.3037 48.3871 35.6351C48.2689 35.7535 48.1506 35.8719 48.0088 35.9903C46.8499 37.0321 45.3364 37.9319 43.7046 38.6422C41.0085 39.8261 37.9814 40.6075 35.6874 41.0811ZM13.2677 34.9011C13.2204 34.9248 13.1968 34.9722 13.1495 34.9958L13.1022 35.0432C13.0549 35.0905 13.0076 35.1379 12.984 35.1853L12.9603 35.2089L12.8184 35.422L12.7948 35.4457C12.7948 35.4694 12.7711 35.4694 12.7711 35.4931L12.7002 35.6351V35.6825C12.6765 35.7535 12.6292 35.8246 12.6056 35.8956C12.5346 36.085 12.4637 36.2744 12.4164 36.4402C12.3927 36.4875 12.3927 36.5586 12.3691 36.5823C12.3454 36.677 12.3218 36.7717 12.3218 36.7954C12.3218 36.7243 12.3218 36.677 12.3454 36.6059C12.3454 36.4876 12.3691 36.3455 12.3691 36.2271C12.3691 36.1324 12.3927 36.014 12.4164 35.9193C12.4164 35.8956 12.4164 35.8482 12.44 35.8246C12.44 35.7772 12.4637 35.7299 12.4637 35.6825C12.4637 35.6351 12.4873 35.5878 12.4873 35.5404V35.4694C12.4873 35.422 12.511 35.351 12.511 35.3037V35.1853V35.1379C12.511 35.1142 12.511 35.0906 12.5346 35.0669C12.5583 34.9958 12.5819 34.9011 12.5819 34.8301V34.8064C12.6056 34.7591 12.6056 34.688 12.6292 34.6407V34.617C12.6529 34.4986 12.7002 34.3802 12.7238 34.2618V34.2145C12.7238 34.1908 12.7238 34.1671 12.7475 34.1434C12.7948 33.954 12.8657 33.7646 12.913 33.5988V33.5752C12.9603 33.4331 13.0313 33.2673 13.0786 33.1253V33.1016C13.1022 33.0306 13.1259 32.9832 13.1495 32.9122C13.1968 32.8175 13.2204 32.7228 13.2677 32.628C13.2677 32.6044 13.2914 32.557 13.3387 32.4623C13.3623 32.4386 13.3623 32.3913 13.386 32.3676C13.4096 32.3202 13.4333 32.2729 13.4569 32.2018L13.4806 32.1545C13.4569 32.1308 13.4096 32.1308 13.386 32.1071H13.3623L13.315 32.0834C13.1022 31.9887 12.8657 31.894 12.6292 31.823H12.5819C12.4164 31.7756 12.2745 31.752 12.1089 31.7283C12.0143 31.7283 11.9197 31.7046 11.8251 31.7046H11.5886C11.4704 31.7046 11.3521 31.7283 11.2339 31.7283C11.1866 31.7283 11.163 31.7283 11.1157 31.752C11.0684 31.752 10.9974 31.7756 10.9501 31.7756C10.9265 31.7756 10.9028 31.7756 10.8792 31.7993C10.8319 31.7993 10.8082 31.823 10.7609 31.823C10.69 31.8467 10.5954 31.8703 10.5244 31.894C10.5008 31.894 10.4535 31.9177 10.4298 31.9177C10.3352 31.9651 10.217 31.9887 10.1224 32.0361C10.0751 32.0598 10.0514 32.0834 10.0041 32.0834L9.86223 32.1545L9.81493 32.1782C9.76763 32.2018 9.72034 32.2255 9.67304 32.2729C9.62574 32.2965 9.57844 32.3202 9.53114 32.3676C9.48384 32.3913 9.43654 32.4386 9.38924 32.4623C9.36559 32.486 9.3183 32.5096 9.29465 32.5333C9.2237 32.6044 9.1291 32.6754 9.05815 32.7464L8.9399 32.8648C8.86896 32.9359 8.82166 33.0069 8.75071 33.0779L8.72706 33.1016C8.70341 33.149 8.65611 33.1726 8.63246 33.22L8.56151 33.291C8.44327 33.4568 8.32502 33.6462 8.23042 33.8356C8.20677 33.8593 8.20677 33.883 8.18312 33.9067C8.13582 34.0014 8.11218 34.0961 8.06488 34.1908C8.04123 34.2381 8.04123 34.2618 8.01758 34.3092C8.01758 34.3329 8.04123 34.3565 8.04123 34.3802C8.06488 34.4749 8.08853 34.546 8.11218 34.6407V34.688C8.13582 34.7591 8.18312 34.8538 8.20677 34.9248C8.30137 35.1616 8.39597 35.3747 8.51422 35.5641C8.53787 35.5878 8.53787 35.6115 8.56151 35.6351V35.6588L8.58516 35.6825C8.65611 35.8246 8.72706 35.943 8.79801 36.0377C8.91626 36.2034 9.01085 36.3218 9.0818 36.4165L9.1291 36.4639C9.1291 36.4876 9.15275 36.4876 9.15275 36.4876L9.20005 36.5349C9.20005 36.4876 9.1764 36.4402 9.1764 36.4165C9.10545 36.1087 9.0818 35.8246 9.0818 35.5168V35.4694C9.0818 35.28 9.0818 35.0905 9.10545 34.9248L9.1764 35.1379C9.20005 35.2326 9.24735 35.3273 9.271 35.422V35.4694C9.41289 35.8719 9.57844 36.2034 9.74399 36.4639C9.93318 36.7954 10.0987 37.0085 10.217 37.1505C10.2406 37.1742 10.2643 37.1979 10.2643 37.2216L10.3116 37.2689C10.2406 36.9374 10.1933 36.6296 10.1933 36.3218V36.014C10.1933 35.8719 10.1933 35.7535 10.217 35.6351C10.2643 35.8482 10.3352 36.0613 10.4062 36.2508V36.2744C10.6663 36.9611 10.9738 37.4583 11.1866 37.7662L11.2102 37.7898C11.2575 37.8372 11.2812 37.8846 11.3048 37.9319C11.3285 37.9556 11.3521 37.9793 11.3521 38.0029L11.3994 38.0503L11.4231 38.074V38.0266C11.4231 37.9793 11.3994 37.9319 11.3994 37.8846C11.3758 37.7188 11.3521 37.5531 11.3285 37.411C11.3285 37.3163 11.3048 37.1979 11.3048 37.1032V36.819V36.7717V36.5823C11.3048 36.4639 11.3285 36.3218 11.3285 36.2034C11.3521 36.2744 11.3758 36.3692 11.3994 36.4402C11.4231 36.4875 11.4467 36.5586 11.4704 36.6059V36.6296L11.494 36.6533C11.5177 36.7243 11.5413 36.7954 11.565 36.8427C11.6123 36.9611 11.6596 37.0795 11.7305 37.1742C11.8015 37.3163 11.8488 37.4347 11.9197 37.5294C11.967 37.6004 11.9907 37.6478 12.0143 37.6951C12.0616 37.7662 12.1089 37.8372 12.1326 37.8846C12.1799 37.9319 12.2035 37.9793 12.2272 38.0266L12.2508 38.0503C12.2745 38.0977 12.3218 38.1213 12.3454 38.1687C12.3691 38.1924 12.3927 38.216 12.3927 38.2397C12.44 38.2871 12.4637 38.3344 12.4873 38.3344L12.511 38.3581V38.2871C12.5346 38.0977 12.5583 37.8846 12.5819 37.6951V37.6241C12.6056 37.3873 12.6529 37.1742 12.7002 36.9611C12.7002 36.9374 12.7002 36.9138 12.7238 36.8664V36.8427C12.7238 36.819 12.7238 36.7954 12.7475 36.7717C12.7475 36.7243 12.7711 36.7007 12.7711 36.6533C12.7948 36.4876 12.8421 36.3218 12.8657 36.1561C12.8894 36.014 12.913 35.8719 12.9367 35.7535V35.7062C12.9367 35.6825 12.9367 35.6588 12.9603 35.6588V35.6115C12.9603 35.5878 12.984 35.5404 12.984 35.5168C12.984 35.4931 12.984 35.4694 13.0076 35.4457C13.0076 35.3984 13.0313 35.351 13.0313 35.3273C13.0313 35.3037 13.0549 35.2563 13.0549 35.2326C13.0549 35.1853 13.0786 35.1379 13.0786 35.1142C13.0786 35.0906 13.0786 35.0669 13.1022 35.0432C13.1022 35.0195 13.1022 34.9958 13.1259 34.9958C13.1259 34.9485 13.1495 34.9248 13.1495 34.9011V34.8301L13.2677 34.9011ZM41.9308 44.7985C42.2619 44.6801 42.5457 44.5854 42.7822 44.4907C43.2316 44.3013 43.4681 44.1592 43.4681 44.1119C43.4444 44.0645 43.1843 44.0882 42.7113 44.2066C42.4748 44.2539 42.191 44.3013 41.8363 44.396C41.6707 44.4434 41.4815 44.467 41.2923 44.4907C41.1031 44.5144 40.8903 44.5617 40.6774 44.5854C40.2517 44.6565 39.7788 44.7038 39.2585 44.7512L38.478 44.8222C38.2179 44.8459 37.9341 44.8459 37.6503 44.8696C36.5151 44.8932 35.2617 44.8459 33.9846 44.6091C33.3225 44.4907 32.4001 44.1829 31.7616 43.8277L31.7379 43.804C32.1163 42.4544 33.5353 42.265 33.5353 42.265L33.488 42.2413H33.4171C33.2042 42.2176 33.0387 42.1939 32.8731 42.1703C32.7549 42.1466 32.6603 42.1466 32.5893 42.1229C32.5184 42.1229 32.4474 42.0992 32.4238 42.0992C31.5724 42.0519 31.0994 42.7622 30.9575 43.07L30.8866 43.2121C30.7683 43.4962 30.6737 43.804 30.6501 44.1592C30.6028 44.7985 30.7683 45.4852 31.265 46.0771C31.5961 46.4797 32.1636 46.8348 32.8968 47.119C32.2582 46.7164 31.6906 45.9351 31.667 44.7275C32.4001 45.0353 33.2279 45.2247 33.8664 45.3431C35.2144 45.6036 36.5388 45.6272 37.6976 45.5562C37.9814 45.5325 38.2888 45.5089 38.549 45.4852C38.8328 45.4378 39.0929 45.4141 39.3531 45.3905C39.8733 45.2958 40.3227 45.2247 40.772 45.13C40.9849 45.0827 41.1977 45.0353 41.3869 44.9643C41.5998 44.9169 41.7653 44.8696 41.9308 44.7985Z" fill="#F2D2AC"/>
<path d="M40.8196 28.9819C41.5291 29.0056 42.0021 29.2187 42.3331 29.5502C42.4041 29.2424 42.4514 28.8635 42.4277 28.4373C42.4041 27.9874 42.3095 27.5849 42.1676 27.2771C42.1203 27.0877 41.8365 26.5904 41.4818 26.6141C41.0324 26.6378 40.7013 27.5139 40.7723 28.5557C40.7723 28.6978 40.7959 28.8398 40.8196 28.9819ZM42.0021 31.6575C42.0021 31.8469 42.073 32.0127 42.1676 32.0837C42.3331 32.1784 42.546 31.989 42.6406 31.6812C42.6406 31.6575 42.6642 31.6338 42.6642 31.6102C42.7352 31.326 42.6642 31.0419 42.4987 30.9708C42.3331 30.8761 42.1203 31.0656 42.0257 31.3734C42.0257 31.4681 42.0021 31.5628 42.0021 31.6575ZM38.7857 32.1784C38.8567 32.2968 38.9749 32.4152 39.1168 32.5099C39.4243 32.6993 39.7554 32.723 39.9446 32.5573L40.0155 32.4862C40.0865 32.3442 40.0628 32.1547 39.9446 31.9653C39.8736 31.8469 39.7554 31.7285 39.6135 31.6575C39.306 31.4681 38.9749 31.4444 38.8094 31.5865C38.7857 31.6101 38.7621 31.6338 38.7384 31.6812C38.6675 31.7996 38.6911 31.989 38.7857 32.1784ZM50.5395 36.5115C50.5158 36.5115 50.5158 36.5115 50.5395 36.5115V36.5115ZM50.1611 43.0703C49.7118 43.4965 49.2151 43.899 48.6475 44.2779C46.2117 45.9353 42.8061 47.2376 40.3939 47.5454C38.5729 47.8296 36.7992 47.8769 35.262 47.6875C34.3633 47.5691 33.5829 47.3797 32.897 47.1192C32.1639 46.8351 31.5963 46.4799 31.2652 46.0774C30.7686 45.4854 30.6267 44.7751 30.6503 44.1595C30.674 43.828 30.7449 43.4965 30.8868 43.2124L30.9578 43.0703C31.1233 42.7625 31.5727 42.0285 32.424 42.0995C32.4477 42.0995 32.5186 42.0995 32.5896 42.1232C32.6605 42.1232 32.7788 42.1469 32.8734 42.1705C33.0389 42.1942 33.2045 42.2179 33.4173 42.2416H33.4883C35.8296 42.5257 38.0763 42.502 40.2047 42.1705C43.3028 41.697 46.1644 40.5841 48.7185 38.8556C48.8604 38.7609 48.9786 38.6662 49.1205 38.5715L50.5159 36.4878C46.2826 40.3473 41.6237 41.4602 38.0763 41.6733C36.137 41.7917 34.5288 41.6496 33.5119 41.5075C33.4646 41.5075 33.441 41.5075 33.4173 41.4839C33.1099 41.4365 32.8734 41.4128 32.6842 41.3892C32.5896 41.3892 32.5186 41.3655 32.4713 41.3655C32.2112 41.3418 31.9511 41.3892 31.7146 41.4602C31.2416 41.6023 30.8159 41.9337 30.5084 42.36C30.13 42.8809 29.8936 43.5912 29.8936 44.3015C29.8936 44.8935 30.0355 45.5091 30.3429 46.0774C30.3665 46.1011 30.3665 46.1248 30.3902 46.1484C30.4375 46.2195 30.4611 46.2668 30.5084 46.3379C30.5557 46.4089 30.6267 46.5036 30.6976 46.5746C31.4308 47.4981 33.0389 48.1611 35.1674 48.4452C36.61 48.6346 38.2891 48.6109 40.1101 48.3505C45.5022 47.3797 48.0563 45.6275 49.2388 44.4199C49.3334 44.3252 49.4043 44.2542 49.4753 44.1595C49.901 43.6622 50.0902 43.2834 50.1611 43.1413V43.1176C50.1848 43.0703 50.1848 43.0466 50.1848 43.0466L50.1611 43.0703Z" fill="#664F44"/>
<path d="M33.0159 24.3645C32.8503 24.2698 32.6611 24.1988 32.4719 24.1514C32.3537 24.1277 32.2354 24.104 32.0936 24.0804C32.0463 24.0804 31.999 24.0804 31.9517 24.0567C31.3131 24.0093 30.7692 24.104 30.7692 24.104C30.6509 24.1277 30.5327 24.1514 30.4381 24.1988C29.5867 24.4592 28.9955 24.9091 28.5698 25.43C28.2387 25.8562 28.0022 26.3061 27.884 26.756C27.8603 26.8033 27.8603 26.827 27.8603 26.8744C27.8367 26.9928 27.7894 27.1111 27.7657 27.2059C27.6948 27.5847 27.6475 27.9162 27.6475 28.2003C27.6475 28.5792 27.6711 28.816 27.6711 28.816C27.813 28.4845 27.9786 28.2003 28.1441 27.9162C28.5461 27.2295 28.9718 26.6613 29.4212 26.2114C30.2725 25.3353 31.1476 24.8617 31.8098 24.625C32.5192 24.3882 33.0159 24.3645 33.0159 24.3645ZM43.2561 23.1569L43.2324 23.1096C43.1378 22.9912 43.0196 22.8728 42.8777 22.7781C42.5466 22.565 42.0973 22.4466 41.4824 22.565C41.4824 22.565 40.7492 22.7307 40.3235 23.228C40.3235 23.228 41.6006 22.6834 42.9723 23.6542C43.0905 23.7489 43.2324 23.8436 43.3507 23.962C43.4689 24.0804 43.6108 24.1988 43.7291 24.3645C43.7291 24.3645 43.6818 23.7726 43.327 23.2516C43.3034 23.2043 43.2797 23.1806 43.2561 23.1569Z" fill="#E9B784"/>
<path d="M33.1812 32.581C33.6779 32.439 34.1982 32.2969 34.7894 32.1548C34.884 31.705 34.9076 31.1604 34.8367 30.5684C34.6712 29.1951 34.0563 28.1296 33.4414 28.2006C32.8265 28.2717 32.4718 29.4556 32.6373 30.8289C32.7319 31.5392 32.9211 32.1548 33.1812 32.581Z" fill="#664F44"/>
<path d="M30.3664 1.63379L29.0893 1.91792L29.3494 4.23837L25.9676 2.50987L24.5723 2.93608L24.5959 2.95976L28.7109 7.648L28.7582 7.62432L28.8055 7.60064C28.9238 7.52961 29.0657 7.43489 29.1839 7.36386C29.2312 7.34018 29.2785 7.3165 29.3258 7.26915C29.515 7.15076 29.7042 7.03237 29.8934 6.93766L28.1433 4.92503L30.9576 6.29835C31.0522 6.251 31.1232 6.20364 31.2178 6.15628L30.9576 4.14366L32.2347 5.63537H32.2583C32.3766 5.58801 32.4712 5.51698 32.5894 5.46962L32.6367 5.44594L32.684 5.42227C32.7077 5.42227 32.7313 5.39859 32.7313 5.39859L32.8732 5.32755C32.8732 5.32755 32.8969 5.32755 32.8969 5.30388C33.0388 5.23284 33.2043 5.16181 33.3462 5.09077L30.3664 1.63379Z" fill="#FFD250"/>
<path d="M29.1137 1.91791L29.3029 1.87056C28.9955 1.72849 28.6171 1.63378 28.1914 1.56274C27.34 1.44435 26.2521 1.56274 25.0224 1.87056C23.7926 2.17837 22.3973 2.72296 20.931 3.45698C17.9748 4.92502 14.7112 7.17442 11.5422 10.0631C10.4307 11.0576 9.41375 12.0994 8.46777 13.1176L12.299 17.8532C13.3396 16.7167 14.4511 15.5801 15.6808 14.4672C17.3127 12.9755 18.9681 11.6496 20.5999 10.513C22.1844 9.40016 23.7689 8.45304 25.2589 7.69534L24.5967 4.66456L24.6203 2.95974L24.5967 2.93607L25.992 2.50986L28.7117 3.90686L28.6407 2.95974L29.1137 1.91791Z" fill="#4D9ED7"/>
<path d="M29.1132 1.91797L28.6402 2.9598L28.7111 3.9306L29.3733 4.26209L29.1132 1.91797ZM28.1436 4.92507L30.9815 6.32207L29.8936 6.9377L28.1436 4.92507ZM30.9815 4.1437L31.2416 6.15633L32.2586 5.63541L30.9815 4.1437Z" fill="#132134"/>
<path d="M41.6711 3.40986H42.1914C42.6644 3.40986 43.1137 3.48089 43.5394 3.5756C43.563 3.5756 43.5867 3.5756 43.6103 3.59928H43.634L43.6813 3.62296H43.7286C43.6813 3.59928 43.634 3.55192 43.5867 3.52825C43.1137 3.33882 42.6171 3.22043 42.0968 3.1494C39.5426 2.81791 36.6101 3.76503 34.9547 4.42801C34.8601 4.47537 34.7655 4.49904 34.6709 4.5464C34.529 4.61743 34.3871 4.66479 34.2452 4.73582C34.0087 4.83054 33.7722 4.94893 33.512 5.06732C33.4647 5.09099 33.4411 5.09099 33.3938 5.11467C33.2519 5.18571 33.0864 5.25674 32.9445 5.32777C32.9445 5.32777 32.9208 5.32777 32.9208 5.35145L32.7789 5.42248C32.7553 5.42248 32.7316 5.44616 32.7316 5.44616H32.637L32.6134 5.46984C32.4951 5.5172 32.4005 5.56455 32.2823 5.63559H32.2586C32.235 5.65926 32.2113 5.65926 32.1877 5.68294H32.164C32.1404 5.68294 32.1167 5.70662 32.1167 5.70662C31.9512 5.80133 31.7856 5.87237 31.6201 5.96708C31.5018 6.03811 31.3836 6.08547 31.2653 6.1565H31.2417C31.1471 6.20386 31.0762 6.25121 30.9816 6.29857C30.6978 6.44064 30.4376 6.60638 30.1538 6.77213C30.1302 6.79581 30.1065 6.79581 30.0592 6.81949C30.0356 6.84316 30.0119 6.84316 29.9883 6.86684C29.9646 6.89052 29.941 6.89052 29.9173 6.9142L29.8937 6.93788C29.7045 7.05627 29.5153 7.15098 29.3261 7.26937C29.2788 7.29305 29.2315 7.31672 29.1842 7.36408C29.066 7.43511 28.9241 7.52982 28.8058 7.60086L28.7585 7.62454L28.7112 7.64821L27.647 8.35855C27.0558 8.76108 26.4882 9.16361 25.9206 9.58981C25.8496 9.63717 25.7787 9.7082 25.7077 9.75556C24.2178 10.8684 22.7989 12.076 21.4272 13.3073C19.9846 14.6332 18.5893 15.9829 17.2885 17.3562C16.5791 18.0665 15.9642 18.7058 15.4912 19.2267C14.4979 20.2923 13.954 20.9552 13.9776 20.9789C13.9776 20.9789 14.0722 20.9079 14.2378 20.7421C14.1195 20.8842 13.9776 21.05 13.8594 21.192C16.0351 18.8716 18.4237 16.5038 21.0015 14.278C22.5624 12.9284 24.1942 11.6261 25.8733 10.4185C26.6064 9.89762 27.3632 9.37671 28.12 8.87947C28.3565 8.71372 28.6166 8.57166 28.8531 8.40591C28.9714 8.33488 29.0896 8.26384 29.2315 8.19281C29.3024 8.14545 29.3734 8.0981 29.4443 8.07442C29.5862 8.00338 29.7045 7.90867 29.8464 7.83764C29.9646 7.7666 30.1065 7.69557 30.2248 7.60086C30.2957 7.5535 30.3667 7.52983 30.4376 7.48247L30.9343 7.19833C31.0289 7.15098 31.1235 7.07994 31.2181 7.03259C31.5255 6.86684 31.8329 6.7011 32.164 6.53535C32.1877 6.51167 32.2113 6.51167 32.235 6.48799L32.3769 6.41696C32.4478 6.39328 32.4951 6.34593 32.5661 6.32225C32.5897 6.29857 32.6134 6.29857 32.637 6.27489L32.7789 6.20386C32.7789 6.20386 32.8026 6.20386 32.8026 6.18018H32.8262C32.9681 6.10915 33.11 6.03811 33.2283 5.99076C33.2519 5.99076 33.2755 5.96708 33.2992 5.9434L33.4411 5.87237C33.6066 5.80133 33.7485 5.7303 33.9141 5.65926C33.9614 5.63559 34.0087 5.61191 34.0323 5.58823C34.056 5.58823 34.0796 5.56455 34.1033 5.56455C34.1506 5.54087 34.1979 5.5172 34.2452 5.5172C34.4344 5.44616 34.5999 5.35145 34.7891 5.28042C34.9547 5.20938 35.0966 5.13835 35.2621 5.06732C36.1608 4.68847 36.9885 4.38065 37.7689 4.1202C39.2352 3.71767 40.5359 3.45721 41.6711 3.40986Z" fill="white"/>
</g>
<defs>
<clipPath id="clip0_2478_799">
<rect width="53" height="60" fill="white"/>
</clipPath>
</defs>
</svg>
